<?xml version="1.0" encoding="UTF-8"?>
<svg version="1.1" xmlns="http://www.w3.org/2000/svg" width="626" height="626">
<path d="M0 0 C206.58 0 413.16 0 626 0 C626 206.58 626 413.16 626 626 C419.42 626 212.84 626 0 626 C0 419.42 0 212.84 0 0 Z " fill="#021C19" transform="translate(0,0)"/>
<path d="M0 0 C4.10899581 1.12795963 8.07561214 2.33510818 12 4 C12 4.66 12 5.32 12 6 C12.9075 6.28875 13.815 6.5775 14.75 6.875 C17.32202908 7.76531776 19.61346766 8.71494413 22 10 C22 10.66 22 11.32 22 12 C23.98 12.66 25.96 13.32 28 14 C28 14.66 28 15.32 28 16 C29.98 16.66 31.96 17.32 34 18 C34 18.66 34 19.32 34 20 C34.70769531 20.23589844 35.41539062 20.47179687 36.14453125 20.71484375 C39.50348493 22.22660265 41.88402217 24.17973508 44.6875 26.5625 C48.13816051 29.59169946 48.13816051 29.59169946 52 32 C52 32.66 52 33.32 52 34 C52.66 34 53.32 34 54 34 C54 34.66 54 35.32 54 36 C54.66 36 55.32 36 56 36 C56 36.66 56 37.32 56 38 C56.66 38 57.32 38 58 38 C58 38.66 58 39.32 58 40 C58.58265625 40.268125 59.1653125 40.53625 59.765625 40.8125 C62.02786601 42.01480991 63.80576318 43.33825913 65.75 45 C66.36359375 45.515625 66.9771875 46.03125 67.609375 46.5625 C69 48 69 48 69 50 C69.54140625 50.20625 70.0828125 50.4125 70.640625 50.625 C73.92118012 52.53684669 76.23844174 55.20498504 78.75 58 C79.25660156 58.5465625 79.76320312 59.093125 80.28515625 59.65625 C84 63.74157682 84 63.74157682 84 66 C84.66 66 85.32 66 86 66 C86 66.66 86 67.32 86 68 C86.66 68 87.32 68 88 68 C88 68.66 88 69.32 88 70 C88.66 70 89.32 70 90 70 C91.78305524 72.63892176 92.99059621 74.97178863 94 78 C94.66 78 95.32 78 96 78 C100 83.41176471 100 83.41176471 100 86 C100.66 86 101.32 86 102 86 C103.515625 88.08984375 103.515625 88.08984375 105.25 90.9375 C108.39799152 96.03236259 111.65277577 101.03433768 115 106 C127.27484604 105.95656431 127.27484604 105.95656431 138 102 C160.45890308 97.61008037 183.13166855 99.23656054 205.26855469 104.3671875 C207.74932743 104.94192498 210.23356864 105.48130167 212.7265625 106 C215.82308899 106.64536825 218.9132702 107.30969497 222 108 C222.66 106.02 223.32 104.04 224 102 C224.66 102 225.32 102 226 102 C226.66 100.02 227.32 98.04 228 96 C228.66 96 229.32 96 230 96 C230.28875 95.4225 230.5775 94.845 230.875 94.25 C231.91666667 92.16666667 232.95833333 90.08333333 234 88 C234.66 88 235.32 88 236 88 C236 87.34 236 86.68 236 86 C236.66 86 237.32 86 238 86 C238.4021875 85.1028125 238.4021875 85.1028125 238.8125 84.1875 C239.99308761 82.01273336 241.26816512 80.73183488 243 79 C243.33 78.01 243.66 77.02 244 76 C244.66 76 245.32 76 246 76 C246 75.34 246 74.68 246 74 C246.66 74 247.32 74 248 74 C248 73.34 248 72.68 248 72 C248.66 72 249.32 72 250 72 C250 71.34 250 70.68 250 70 C250.66 70 251.32 70 252 70 C252.36931641 69.14390137 252.36931641 69.14390137 252.74609375 68.27050781 C254.20898997 65.6215719 255.92645319 63.81451454 258.0625 61.671875 C259.25746094 60.47304687 259.25746094 60.47304687 260.4765625 59.25 C261.30929687 58.425 262.14203125 57.6 263 56.75 C263.83273437 55.90953125 264.66546875 55.0690625 265.5234375 54.203125 C266.71839844 53.01203125 266.71839844 53.01203125 267.9375 51.796875 C268.66839844 51.06823242 269.39929688 50.33958984 270.15234375 49.58886719 C272 48 272 48 274 48 C274 47.34 274 46.68 274 46 C274.66 46 275.32 46 276 46 C276 45.34 276 44.68 276 44 C276.66 44 277.32 44 278 44 C278 43.34 278 42.68 278 42 C278.66 42 279.32 42 280 42 C280 41.34 280 40.68 280 40 C281.32 39.67 282.64 39.34 284 39 C284 38.34 284 37.68 284 37 C287.46153846 34 287.46153846 34 290 34 C290 33.34 290 32.68 290 32 C290.66 32 291.32 32 292 32 C292 31.34 292 30.68 292 30 C293.98 29.34 295.96 28.68 298 28 C298 27.34 298 26.68 298 26 C298.66 26 299.32 26 300 26 C300 25.34 300 24.68 300 24 C301.98 23.34 303.96 22.68 306 22 C306 21.34 306 20.68 306 20 C308.1171875 18.4921875 308.1171875 18.4921875 310.875 16.875 C311.77992188 16.33617188 312.68484375 15.79734375 313.6171875 15.2421875 C316 14 316 14 318 14 C318 13.34 318 12.68 318 12 C339.24590164 0 339.24590164 0 346 0 C347.33858524 2.28874173 348.67101014 4.58069656 350 6.875 C350.3815625 7.52597656 350.763125 8.17695312 351.15625 8.84765625 C354 13.7734375 354 13.7734375 354 16 C354.66 16 355.32 16 356 16 C361.28208423 28.32049423 365.55426378 40.43277087 368.41455078 53.5390625 C368.81333801 55.21536577 369.27303556 56.87806332 369.78466797 58.5234375 C372.77031542 68.55492876 372.54887176 78.62691336 372.5 89 C372.49856995 89.97332275 372.49713989 90.94664551 372.4956665 91.94946289 C372.38134317 123.42519668 365.54576918 153.18690979 352.015625 181.66015625 C351.09757301 183.7752068 350.47802026 185.75018724 350 188 C349.34 188 348.68 188 348 188 C347.7525 188.825 347.505 189.65 347.25 190.5 C345.81295189 194.52373471 343.97645485 198.21979024 342 202 C341.34 202 340.68 202 340 202 C338.72785415 208.52344557 339.43218872 212.70959555 341.75 218.875 C342.31095565 220.45274859 342.87085883 222.03087179 343.4296875 223.609375 C343.70135742 224.36154297 343.97302734 225.11371094 344.25292969 225.88867188 C345.66378497 229.87595178 346.83572049 233.93523469 348 238 C348.66 238 349.32 238 350 238 C350.67154933 239.28913487 351.33708859 240.58140204 352 241.875 C352.37125 242.59429687 352.7425 243.31359375 353.125 244.0546875 C354 246 354 246 354 248 C354.66 248 355.32 248 356 248 C356.66 249.98 357.32 251.96 358 254 C358.66 254 359.32 254 360 254 C360 254.66 360 255.32 360 256 C360.66 256 361.32 256 362 256 C362.60908203 257.03447266 362.60908203 257.03447266 363.23046875 258.08984375 C365.47501596 261.78120726 368.25016537 264.54187708 371.3125 267.5625 C371.86873047 268.12646484 372.42496094 268.69042969 372.99804688 269.27148438 C375.65997749 271.9210195 378.24104524 274.26109362 381.41796875 276.27734375 C382.27003906 276.84582031 383.12210938 277.41429687 384 278 C384 278.66 384 279.32 384 280 C385.98 280.66 387.96 281.32 390 282 C390 282.66 390 283.32 390 284 C391.98 284.66 393.96 285.32 396 286 C396 286.66 396 287.32 396 288 C396.598125 288.12375 397.19625 288.2475 397.8125 288.375 C400 289 400 289 403 291 C402.67 291.99 402.34 292.98 402 294 C400.68 294 399.36 294 398 294 C398 294.66 398 295.32 398 296 C396.28894325 296.60218605 396.28894325 296.60218605 394.5433197 297.21653748 C389.91414505 298.95511136 385.6473575 301.18059405 381.30688477 303.53540039 C371.91416859 308.55250511 362.41667559 313.3312747 352.87367058 318.05489922 C349.99668366 319.47973143 347.12168799 320.90851239 344.24720764 322.33839417 C336.08987105 326.39601864 327.93136549 330.45123857 319.76635742 334.4934082 C314.72878832 336.98766215 309.69534603 339.49008345 304.66433907 341.99754524 C302.77439718 342.93763968 300.88301302 343.8748415 298.9900341 344.80880547 C263.0145405 362.56356296 236.43421383 382.29879149 219 419 C217.78222306 421.54735187 216.55073954 424.08754571 215.3125 426.625 C214.79300781 427.71039063 214.27351563 428.79578125 213.73828125 429.9140625 C207.65659963 440.71075571 198.46266568 444.93174486 186.8828125 448.23828125 C185.93148437 448.48964844 184.98015625 448.74101563 184 449 C183.0416626 449.26586914 183.0416626 449.26586914 182.06396484 449.53710938 C167.93751746 452.70528352 148.02344806 450.07935807 135.6875 442.5625 C134.45016111 441.72021509 133.22003727 440.86715653 132 440 C131.113125 439.4225 130.22625 438.845 129.3125 438.25 C124.36017321 433.43151988 121.97228917 426.99694455 119.25610352 420.74951172 C100.71797591 378.1491554 69.50638817 359.98282028 29.55078125 339.3828125 C23.34815372 336.18462453 17.16845094 332.94510098 10.99804688 329.68530273 C6.81491584 327.47708875 2.62501654 325.28292973 -1.57421875 323.10546875 C-12.05791724 317.66626072 -22.48657602 312.15563779 -32.79467773 306.38891602 C-33.56884033 305.95764404 -34.34300293 305.52637207 -35.140625 305.08203125 C-35.81641602 304.70280518 -36.49220703 304.3235791 -37.18847656 303.93286133 C-39.14639319 302.86609815 -39.14639319 302.86609815 -42 302 C-42 301.34 -42 300.68 -42 300 C-42.68449219 299.89816406 -43.36898437 299.79632813 -44.07421875 299.69140625 C-47.58269626 298.86230008 -50.55755526 297.4827768 -53.8125 295.9375 C-54.97394531 295.38964844 -56.13539062 294.84179688 -57.33203125 294.27734375 C-58.65267578 293.64505859 -58.65267578 293.64505859 -60 293 C-60 292.01 -60 291.02 -60 290 C-58.02 289.34 -56.04 288.68 -54 288 C-54 287.34 -54 286.68 -54 286 C-52.02 285.34 -50.04 284.68 -48 284 C-48 283.34 -48 282.68 -48 282 C-42.58823529 278 -42.58823529 278 -40 278 C-40 277.34 -40 276.68 -40 276 C-39.34 276 -38.68 276 -38 276 C-38 275.34 -38 274.68 -38 274 C-36.63671875 272.87890625 -36.63671875 272.87890625 -34.6875 271.5625 C-30.82214783 268.76392961 -27.43673258 265.67014071 -24.0625 262.3125 C-23.5780542 261.8369165 -23.0936084 261.36133301 -22.59448242 260.87133789 C-20.3254663 258.58374645 -19.03428187 257.10284561 -18 254 C-17.34 254 -16.68 254 -16 254 C-16 253.34 -16 252.68 -16 252 C-15.34 252 -14.68 252 -14 252 C-13.01 249.03 -13.01 249.03 -12 246 C-11.34 246 -10.68 246 -10 246 C-9.01 243.03 -9.01 243.03 -8 240 C-7.34 240 -6.68 240 -6 240 C-6 238.68 -6 237.36 -6 236 C-5.34 236 -4.68 236 -4 236 C-3.7525 235.21625 -3.505 234.4325 -3.25 233.625 C-1.66068507 229.01598671 0.16207173 224.51452284 2 220 C2.66 220 3.32 220 4 220 C4.103125 219.175 4.20625 218.35 4.3125 217.5 C5.11646056 213.40710988 6.46352158 209.87459775 8 206 C7.34 206 6.68 206 6 206 C-16.44961446 167.04487703 -16.44961446 167.04487703 -16 156 C-16.66 156 -17.32 156 -18 156 C-29.05917723 111.06697251 -31.83550127 67.25398046 -13 24 C-12.46755177 22.52497449 -11.94449791 21.0464658 -11.4375 19.5625 C-9.73359407 15.33977661 -7.49782692 11.78679299 -5 8 C-4.05881451 6.50230974 -3.12119291 5.00237272 -2.1875 3.5 C-1.45833333 2.33333333 -0.72916667 1.16666667 0 0 Z " fill="#FC5700" transform="translate(140,84)"/>
<path d="M0 0 C96.69 0 193.38 0 293 0 C293 206.58 293 413.16 293 626 C199.28 626 105.56 626 9 626 C9 625.67 9 625.34 9 625 C9.66080566 624.94577881 10.32161133 624.89155762 11.00244141 624.83569336 C29.82902966 623.211154 47.7304534 619.8288758 66 615 C67.53068115 614.5980542 67.53068115 614.5980542 69.09228516 614.18798828 C109.70401355 603.28013407 147.73812933 582.89288179 180 556 C180.54156738 555.54866699 181.08313477 555.09733398 181.64111328 554.63232422 C191.86673711 546.0775724 201.34651828 537.16608218 210 527 C210.79921875 526.08992187 211.5984375 525.17984375 212.421875 524.2421875 C252.16480718 478.66052409 278.71248932 420.66158084 288 361 C288.13535156 360.19836426 288.27070312 359.39672852 288.41015625 358.57080078 C294.80428443 319.79559777 291.76671241 279.10747201 283 241 C282.66959717 239.54883789 282.66959717 239.54883789 282.33251953 238.06835938 C277.33037174 216.51952809 269.46378769 195.96850527 260 176 C259.43394043 174.80213867 259.43394043 174.80213867 258.85644531 173.58007812 C247.93922324 150.67268833 234.46533271 129.3397891 218 110 C217.14736089 108.96312396 216.29585305 107.92531692 215.4453125 106.88671875 C203.69211797 92.68468195 190.64209196 79.22963747 176 68 C174.93845703 67.1028125 174.93845703 67.1028125 173.85546875 66.1875 C126.72144134 26.56520025 61.31345976 3.19368371 0 1 C0 0.67 0 0.34 0 0 Z " fill="#FDFDFD" transform="translate(333,0)"/>
<path d="M0 0 C97.35 0 194.7 0 295 0 C295 0.33 295 0.66 295 1 C294.16041748 1.07516846 293.32083496 1.15033691 292.45581055 1.2277832 C271.01000987 3.16859956 250.08278456 5.12220511 229.37597656 11.30419922 C226.87052113 12.03791767 224.35586829 12.72788991 221.8359375 13.41015625 C177.81786501 25.40993594 138.60711486 48.40276175 104.6315918 78.57568359 C103.03351285 79.97074458 101.40473598 81.31851489 99.76171875 82.66015625 C97.54922651 84.5346723 95.75689985 86.27009489 93.9375 88.5 C91.28421706 91.63145701 88.48574629 94.49695981 85.53125 97.33666992 C67.0488063 115.200671 53.44125203 137.68575757 41 160 C40.62891113 160.6609668 40.25782227 161.32193359 39.87548828 162.00292969 C31.83538849 176.39281783 25.22499312 191.36552446 20 207 C19.68417969 207.93070313 19.36835938 208.86140625 19.04296875 209.8203125 C16.52547055 217.49538192 14.2447861 225.24143155 12 233 C11.76845215 233.79212891 11.5369043 234.58425781 11.29833984 235.40039062 C4.13858384 260.31951189 1.77469807 286.78145904 1.8125 312.625 C1.81277191 313.33255432 1.81304382 314.04010864 1.81332397 314.769104 C1.93496276 384.42628626 23.67284934 452.86993589 67 508 C67.86054401 509.12671228 68.71986495 510.25435947 69.578125 511.3828125 C83.48575582 529.54788133 99.77184228 547.15361096 118 561 C119.19826996 561.93835111 120.39615998 562.87718751 121.59375 563.81640625 C131.28167501 571.33124807 141.39964506 577.85238722 152 584 C152.72944824 584.42522949 153.45889648 584.85045898 154.21044922 585.28857422 C168.87067639 593.78294955 184.18099213 602.29828253 200.45703125 607.2109375 C203.00787067 608.00244221 205.41519832 608.96220928 207.875 610 C229.58212162 618.76437774 253.8522532 622.52168328 277 625 C277 625.33 277 625.66 277 626 C185.59 626 94.18 626 0 626 C0 419.42 0 212.84 0 0 Z " fill="#FDFDFD" transform="translate(0,0)"/>
<path d="M0 0 C2.23395728 -0.00958986 4.46694621 -0.04060246 6.70068359 -0.07226562 C19.71577303 -0.16868236 31.97603405 1.69739842 44.39990234 5.67773438 C45.06151367 5.88946289 45.723125 6.10119141 46.40478516 6.31933594 C51.17809891 7.89003168 55.48600976 9.86352299 59.89990234 12.24023438 C61.22453403 12.60662186 62.55690189 12.94827775 63.89990234 13.24023438 C63.89990234 13.90023438 63.89990234 14.56023437 63.89990234 15.24023438 C65.21990234 15.24023438 66.53990234 15.24023438 67.89990234 15.24023438 C67.89990234 15.90023438 67.89990234 16.56023437 67.89990234 17.24023438 C68.47224609 17.35496094 69.04458984 17.4696875 69.63427734 17.58789062 C72.1146189 18.30205794 73.96358931 19.3133131 76.14990234 20.67773438 C76.85630859 21.10957031 77.56271484 21.54140625 78.29052734 21.98632812 C78.82162109 22.40011719 79.35271484 22.81390625 79.89990234 23.24023438 C79.89990234 23.90023438 79.89990234 24.56023437 79.89990234 25.24023438 C80.62177734 25.48773438 81.34365234 25.73523438 82.08740234 25.99023438 C85.17596816 27.36293029 87.41001652 28.96376734 89.89990234 31.24023438 C89.89990234 31.90023438 89.89990234 32.56023437 89.89990234 33.24023438 C90.55990234 33.24023438 91.21990234 33.24023438 91.89990234 33.24023438 C91.89990234 33.90023437 91.89990234 34.56023437 91.89990234 35.24023438 C92.55990234 35.24023438 93.21990234 35.24023438 93.89990234 35.24023438 C93.89990234 35.90023437 93.89990234 36.56023437 93.89990234 37.24023438 C94.55990234 37.24023438 95.21990234 37.24023438 95.89990234 37.24023438 C95.89990234 37.90023437 95.89990234 38.56023437 95.89990234 39.24023438 C96.55990234 39.24023438 97.21990234 39.24023438 97.89990234 39.24023438 C99.89990234 42.24023438 99.89990234 42.24023438 99.89990234 45.24023438 C100.55990234 45.24023438 101.21990234 45.24023438 101.89990234 45.24023438 C101.89990234 45.90023437 101.89990234 46.56023437 101.89990234 47.24023438 C102.55990234 47.24023438 103.21990234 47.24023438 103.89990234 47.24023438 C103.89990234 47.90023437 103.89990234 48.56023437 103.89990234 49.24023438 C104.55990234 49.24023438 105.21990234 49.24023438 105.89990234 49.24023438 C106.57145167 50.52936925 107.23699093 51.82163641 107.89990234 53.11523438 C108.27115234 53.83453125 108.64240234 54.55382812 109.02490234 55.29492188 C109.89990234 57.24023438 109.89990234 57.24023438 109.89990234 59.24023438 C110.55990234 59.24023438 111.21990234 59.24023438 111.89990234 59.24023438 C112.85573287 61.6298107 113.81036214 64.01977386 114.75927734 66.41210938 C115.45610617 68.13986304 116.17061294 69.86078635 116.91552734 71.56835938 C120.92405267 80.92158514 123.18125861 90.80533294 124.86474609 100.81054688 C125.0278125 101.77186523 125.19087891 102.73318359 125.35888672 103.72363281 C125.66885932 105.59675297 125.96409455 107.4723959 126.24169922 109.35058594 C127.65023942 117.96289339 130.53576082 126.05436516 137.46240234 131.74023438 C138.20619141 132.36929688 138.94998047 132.99835938 139.71630859 133.64648438 C143.83054581 136.64936234 146.74835363 138.00342678 151.89990234 137.24023438 C161.14501987 133.00916267 166.69848455 127.66647581 170.52490234 118.30273438 C173.00949429 111.38080409 174.72358451 104.32688859 176.42919922 97.18505859 C179.2673471 85.4585617 183.39417034 74.40331198 187.89990234 63.24023438 C188.55990234 63.24023438 189.21990234 63.24023438 189.89990234 63.24023438 C190.18865234 62.33273437 190.47740234 61.42523438 190.77490234 60.49023438 C191.6652201 57.9182053 192.61484647 55.62676671 193.89990234 53.24023438 C194.55990234 53.24023438 195.21990234 53.24023438 195.89990234 53.24023438 C196.55990234 51.26023437 197.21990234 49.28023438 197.89990234 47.24023438 C198.55990234 47.24023438 199.21990234 47.24023438 199.89990234 47.24023438 C199.89990234 46.58023438 199.89990234 45.92023438 199.89990234 45.24023438 C200.55990234 45.24023438 201.21990234 45.24023438 201.89990234 45.24023438 C201.96177734 44.70398438 202.02365234 44.16773438 202.08740234 43.61523438 C203.30025498 40.06997281 205.3460116 37.98099517 207.89990234 35.24023438 C208.55990234 35.24023438 209.21990234 35.24023438 209.89990234 35.24023438 C209.89990234 34.58023438 209.89990234 33.92023438 209.89990234 33.24023438 C210.55990234 33.24023438 211.21990234 33.24023438 211.89990234 33.24023438 C211.89990234 32.58023438 211.89990234 31.92023438 211.89990234 31.24023438 C212.55990234 31.24023438 213.21990234 31.24023438 213.89990234 31.24023438 C213.89990234 30.58023437 213.89990234 29.92023438 213.89990234 29.24023438 C215.57958984 27.73242187 215.57958984 27.73242187 217.77490234 26.11523438 C218.85384766 25.30699219 218.85384766 25.30699219 219.95458984 24.48242188 C221.89990234 23.24023438 221.89990234 23.24023438 223.89990234 23.24023438 C223.89990234 22.58023437 223.89990234 21.92023438 223.89990234 21.24023438 C252.28412123 4.95631742 275.29654308 -0.1922384 307.89990234 0.24023438 C308.73650391 0.24748535 309.57310547 0.25473633 310.43505859 0.26220703 C323.53562217 0.430236 336.08034129 2.98030556 348.88037109 5.62353516 C353.08629013 6.48253835 357.30358256 7.27360882 361.52490234 8.05273438 C362.77529297 8.28605469 364.02568359 8.519375 365.31396484 8.75976562 C366.16732422 8.91832031 367.02068359 9.076875 367.89990234 9.24023438 C365.72674044 11.61981267 363.67006577 13.03787667 360.78794861 14.46313477 C359.95159378 14.88048386 359.11523895 15.29783295 358.25354004 15.72782898 C356.881474 16.40105949 356.881474 16.40105949 355.48168945 17.08789062 C354.51530045 17.56809158 353.54891144 18.04829254 352.55323792 18.54304504 C350.45109759 19.58672833 348.34759264 20.62766648 346.24290276 21.66619873 C342.89523291 23.31853538 339.55156763 24.97872789 336.20887756 26.64111328 C327.89174545 30.77564082 319.56920524 34.89922971 311.24432373 39.01812744 C304.23029458 42.48864994 297.21959384 45.96571868 290.21344185 49.45211792 C286.95002499 51.07288095 283.68202911 52.68412854 280.4138031 54.29516602 C244.57733274 72.06453445 218.27353524 91.66655633 200.89990234 128.24023438 C199.6821254 130.78758625 198.45064188 133.32778009 197.21240234 135.86523438 C196.69291016 136.950625 196.17341797 138.03601563 195.63818359 139.15429688 C189.55650198 149.95099008 180.36256802 154.17197924 168.78271484 157.47851562 C167.35572266 157.85556641 167.35572266 157.85556641 165.89990234 158.24023438 C164.94156494 158.50610352 164.94156494 158.50610352 163.96386719 158.77734375 C149.8374198 161.9455179 129.92335041 159.31959245 117.58740234 151.80273438 C116.35006345 150.96044947 115.11993961 150.10739091 113.89990234 149.24023438 C113.01302734 148.66273438 112.12615234 148.08523438 111.21240234 147.49023438 C106.26007555 142.67175425 103.87219152 136.23717893 101.15600586 129.98974609 C82.61787826 87.38938977 51.40629051 69.22305465 11.45068359 48.62304688 C5.24805606 45.42485891 -0.93164672 42.18533535 -7.10205078 38.92553711 C-11.28518181 36.71732313 -15.47508112 34.5231641 -19.67431641 32.34570312 C-30.1580149 26.9064951 -40.58667368 21.39587217 -50.89477539 15.62915039 C-51.66893799 15.19787842 -52.44310059 14.76660645 -53.24072266 14.32226562 C-53.91651367 13.94303955 -54.59230469 13.56381348 -55.28857422 13.1730957 C-57.24649084 12.10633252 -57.24649084 12.10633252 -60.10009766 11.24023438 C-60.10009766 10.58023437 -60.10009766 9.92023438 -60.10009766 9.24023438 C-55.3894527 7.52929257 -50.76675212 6.5286938 -45.85009766 5.67773438 C-40.83241088 4.93209026 -40.83241088 4.93209026 -36.10009766 3.24023438 C-33.51642848 2.86948364 -30.94223311 2.53754023 -28.35009766 2.24023438 C-26.93849763 2.0747721 -25.52703617 1.90812297 -24.11572266 1.74023438 C-23.48956055 1.66804688 -22.86339844 1.59585937 -22.21826172 1.52148438 C-20.57678846 1.30352942 -18.94332499 1.02482274 -17.31542969 0.72167969 C-11.58006091 -0.13710142 -5.78818464 0.01495333 0 0 Z " fill="#FCFCFB" transform="translate(158.10009765625,374.759765625)"/>
<path d="M0 0 C1.07314453 0.50853516 1.07314453 0.50853516 2.16796875 1.02734375 C5.06803964 2.65393042 6.66324752 3.87818038 7.63671875 7.12109375 C8.17422181 14.58641404 5.08739991 20.92323162 1 27 C-3.93450932 32.47985616 -9.44733444 37.08946689 -16.8125 38.5625 C-25.00180918 37.11732779 -31.29496629 30.52056302 -36 24 C-39.0914439 18.53844911 -40.90683532 12.29232672 -40 6 C-36.8838594 1.35105511 -31.70054284 -1.89008493 -26.390625 -3.5625 C-16.97054347 -5.28643649 -8.43474039 -4.5394784 0 0 Z " fill="#020101" transform="translate(324,475)"/>
<path d="M0 0 C4.10391862 -0.1177595 8.20739356 -0.18776774 12.3125 -0.25 C13.46041016 -0.28351563 14.60832031 -0.31703125 15.79101562 -0.3515625 C24.61103412 -0.45150605 32.57241671 0.51335872 39.68359375 6.11328125 C40.26238281 6.83902344 40.84117187 7.56476563 41.4375 8.3125 C42.06785156 9.09882813 42.69820312 9.88515625 43.34765625 10.6953125 C48.44445 17.80431561 51.35659914 24.08502139 51 33 C45.55049868 32.39787876 40.31641644 31.52176568 35 30.1875 C34.30519531 30.01444336 33.61039063 29.84138672 32.89453125 29.66308594 C27.82682291 28.34386543 23.50952029 26.6305535 19 24 C19 23.34 19 22.68 19 22 C18.41863281 21.7421875 17.83726562 21.484375 17.23828125 21.21875 C9.82528003 17.18235143 4.22894087 9.10990684 0 2 C0 1.34 0 0.68 0 0 Z " fill="#080303" transform="translate(213,346)"/>
<path d="M0 0 C1.06669922 0.00322266 2.13339844 0.00644531 3.23242188 0.00976562 C4.88661133 0.02233398 4.88661133 0.02233398 6.57421875 0.03515625 C7.69634766 0.03966797 8.81847656 0.04417969 9.97460938 0.04882812 C12.73703385 0.06058312 15.49934873 0.07701548 18.26171875 0.09765625 C15.00666795 10.94268333 6.65631213 19.07376955 -2.73828125 25.09765625 C-11.42128938 29.75329512 -23.87712753 33.09765625 -33.73828125 33.09765625 C-32.10073035 23.27235082 -28.14975788 13.00380492 -20.73828125 6.09765625 C-13.91543428 1.96328209 -7.99668692 -0.04276303 0 0 Z " fill="#080203" transform="translate(388.73828125,345.90234375)"/>
<path d="M0 0 C0.86021759 -0.00517639 1.72043518 -0.01035278 2.60671997 -0.01568604 C5.0739197 -0.02740278 7.54060869 -0.02422645 10.0078125 -0.015625 C10.75692398 -0.01958282 11.50603546 -0.02354065 12.27784729 -0.02761841 C16.02162108 0.00592488 17.67917315 0.11944876 20.875 2.25 C19.69417847 2.279729 19.69417847 2.279729 18.48950195 2.31005859 C-16.51496373 3.08391171 -16.51496373 3.08391171 -51.27734375 6.8828125 C-54.25663807 7.26697391 -57.12441153 7.31260542 -60.125 7.25 C-55.34506602 2.96091499 -49.46880777 3.12835472 -43.36035156 2.49267578 C-41.16986702 2.25487088 -38.98889839 1.97289645 -36.8046875 1.68359375 C-24.55459234 0.17869667 -12.32484889 0.03479118 0 0 Z " fill="#1A2722" transform="translate(315.125,-0.24999999999999997)"/>
<path d="M0 0 C2 2 2 2 2.21118164 5.9453125 C2.20413208 7.67194438 2.18629639 9.39855161 2.16015625 11.125 C2.15459213 12.05194168 2.14902802 12.97888336 2.14329529 13.93391418 C2.1308634 15.92395955 2.1141967 17.91398203 2.09375 19.90396118 C2.04186928 25.04395196 2.02185477 30.18401264 2.00390625 35.32421875 C1.99996857 36.33514084 1.99603088 37.34606293 1.99197388 38.38761902 C1.96455861 49.94138995 2.36684544 61.46345238 3 73 C2.67 73 2.34 73 2 73 C2 71.02 2 69.04 2 67 C1.34 67 0.68 67 0 67 C0 44.89 0 22.78 0 0 Z " fill="#CAD1CF" transform="translate(0,283)"/>
<path d="M0 0 C0.33 0 0.66 0 1 0 C1.02464705 5.67830078 1.04283462 11.35657069 1.05493164 17.03491211 C1.05997256 18.96818585 1.06680519 20.90145576 1.07543945 22.8347168 C1.08751565 25.60726872 1.09323057 28.37977041 1.09765625 31.15234375 C1.10281754 32.02213364 1.10797882 32.89192352 1.11329651 33.78807068 C1.11349185 35.85905814 1.06208168 37.92994324 1 40 C0.505 40.495 0.505 40.495 0 41 C-0.28538322 44.32947093 -0.44892633 47.65897628 -0.62109375 50.99609375 C-1 54 -1 54 -3 56 C-2.8583467 53.12473931 -2.71181468 50.24986464 -2.5625 47.375 C-2.52318359 46.56675781 -2.48386719 45.75851562 -2.44335938 44.92578125 C-2.40146484 44.13300781 -2.35957031 43.34023438 -2.31640625 42.5234375 C-2.27974854 41.80075684 -2.24309082 41.07807617 -2.20532227 40.33349609 C-2 38 -2 38 -1.5 35.19140625 C-0.93375132 31.57714707 -0.78598576 28.07091985 -0.68359375 24.4140625 C-0.66281265 23.71227875 -0.64203156 23.010495 -0.62062073 22.28744507 C-0.55573676 20.06672042 -0.4965277 17.84588724 -0.4375 15.625 C-0.39425646 14.11066629 -0.3506404 12.59634317 -0.30664062 11.08203125 C-0.20011914 7.38813345 -0.09868323 3.69411646 0 0 Z " fill="#D6DFDF" transform="translate(625,304)"/>
<path d="M0 0 C0.66 0.33 1.32 0.66 2 1 C2 4 2 4 0.75 5.375 C0.1725 5.91125 -0.405 6.4475 -1 7 C-1.639375 7.845625 -2.27875 8.69125 -2.9375 9.5625 C-4.90890121 11.89233779 -6.20494288 12.90194184 -9 14 C-9.80859375 12.328125 -9.80859375 12.328125 -10 10 C-7.91015625 7.421875 -7.91015625 7.421875 -5.0625 4.75 C-4.12535156 3.85796875 -3.18820312 2.9659375 -2.22265625 2.046875 C-1.48917969 1.37140625 -0.75570313 0.6959375 0 0 Z " fill="#061612" transform="translate(390,458)"/>
<path d="M0 0 C0.99 0 1.98 0 3 0 C3.90664798 1.44392086 4.81173974 2.88885405 5.70703125 4.33984375 C9.36544051 9.03719702 15.41432541 11.46393949 21 13 C20.01 13.66 19.02 14.32 18 15 C13.20655469 13.99154293 10.30806208 11.91020456 6.75 8.625 C5.89921875 7.85414063 5.0484375 7.08328125 4.171875 6.2890625 C2.21362622 4.22515282 1.07118393 2.60654755 0 0 Z " fill="#141214" transform="translate(288,498)"/>
<path d="M0 0 C0 3 0 3 -1.0546875 4.765625 C-2.41866599 7.98957415 -1.73836917 10.34239352 -1.125 13.75 C-0.92132813 14.92046875 -0.71765625 16.0909375 -0.5078125 17.296875 C-0.34023438 18.18890625 -0.17265625 19.0809375 0 20 C-0.66 20.33 -1.32 20.66 -2 21 C-5.83037615 9.46327182 -5.83037615 9.46327182 -5 5 C-2.5 2.125 -2.5 2.125 0 0 Z " fill="#121114" transform="translate(289,476)"/>
<path d="M0 0 C0.99 0.33 1.98 0.66 3 1 C3 1.99 3 2.98 3 4 C2.34 4 1.68 4 1 4 C0.5978125 5.2684375 0.5978125 5.2684375 0.1875 6.5625 C-1.0478595 10.13854067 -2.476988 13.53860908 -4 17 C-4.99 17 -5.98 17 -7 17 C-5.24009216 11.08030998 -2.60305395 5.58365008 0 0 Z " fill="#212B28" transform="translate(32,175)"/>
<path d="M0 0 C0 3 0 3 -1 5 C-1.66 5 -2.32 5 -3 5 C-3 5.66 -3 6.32 -3 7 C-3.66 7 -4.32 7 -5 7 C-5.061875 7.61875 -5.12375 8.2375 -5.1875 8.875 C-5.455625 9.57625 -5.72375 10.2775 -6 11 C-6.804375 11.309375 -7.60875 11.61875 -8.4375 11.9375 C-11.24507417 12.77381806 -11.24507417 12.77381806 -12.3125 15.625 C-12.539375 16.40875 -12.76625 17.1925 -13 18 C-13.66 17.01 -14.32 16.02 -15 15 C-10.05 10.05 -5.1 5.1 0 0 Z " fill="#111E1A" transform="translate(91,91)"/>
<path d="M0 0 C0.66 0 1.32 0 2 0 C0.27933894 5.44876003 -1.84705349 10.71169451 -4 16 C-5.32 15.67 -6.64 15.34 -8 15 C-6.85657478 12.68628057 -5.71038936 10.37400323 -4.5625 8.0625 C-4.23701172 7.40314453 -3.91152344 6.74378906 -3.57617188 6.06445312 C-1.11328125 1.11328125 -1.11328125 1.11328125 0 0 Z " fill="#16231E" transform="translate(367,486)"/>
<path d="M0 0 C0.66 0.33 1.32 0.66 2 1 C1.67 1.99 1.34 2.98 1 4 C-0.32 4 -1.64 4 -3 4 C-3 5.32 -3 6.64 -3 8 C-3.7425 8.28875 -4.485 8.5775 -5.25 8.875 C-7.56739797 9.82302644 -9.77917115 10.84845911 -12 12 C-11.71855013 8.79580145 -10.99711793 7.99753608 -8.49609375 5.859375 C-7.48675781 5.16328125 -6.47742188 4.4671875 -5.4375 3.75 C-4.42558594 3.04359375 -3.41367187 2.3371875 -2.37109375 1.609375 C-1.58863281 1.07828125 -0.80617188 0.5471875 0 0 Z " fill="#161C1C" transform="translate(403,448)"/>
<path d="M0 0 C-0.5 1.875 -0.5 1.875 -2 4 C-6.16575502 5.703747 -10.51767658 6.28014521 -15 6 C-15.33 5.34 -15.66 4.68 -16 4 C-13.89748139 3.32815382 -11.79292237 2.66269032 -9.6875 2 C-8.51574219 1.62875 -7.34398437 1.2575 -6.13671875 0.875 C-3 0 -3 0 0 0 Z " fill="#152320" transform="translate(236,9)"/>
<path d="M0 0 C0.66 0 1.32 0 2 0 C2 0.66 2 1.32 2 2 C2.66 2 3.32 2 4 2 C3.24964259 5.11799003 2.36636589 8.18070403 1.4375 11.25 C1.16808594 12.14203125 0.89867187 13.0340625 0.62109375 13.953125 C0.41613281 14.62859375 0.21117187 15.3040625 0 16 C-2 14 -2 14 -2.125 10.875 C-2.08375 9.92625 -2.0425 8.9775 -2 8 C-1.34 8 -0.68 8 0 8 C0 5.36 0 2.72 0 0 Z " fill="#181F1E" transform="translate(144,288)"/>
<path d="M0 0 C0.33 0 0.66 0 1 0 C1.33 2.97 1.66 5.94 2 9 C2.33 9 2.66 9 3 9 C2.67 14.61 2.34 20.22 2 26 C1.67 26 1.34 26 1 26 C0.0197752 20.31160882 -0.11948801 14.82705667 -0.0625 9.0625 C-0.05573242 7.75055664 -0.05573242 7.75055664 -0.04882812 6.41210938 C-0.03714834 4.27470953 -0.01921689 2.13734537 0 0 Z " fill="#06100C" transform="translate(2,329)"/>
<path d="M0 0 C0.33 0 0.66 0 1 0 C1.53132389 2.58157368 2.05034379 5.16461756 2.5625 7.75 C2.78969727 8.84441406 2.78969727 8.84441406 3.02148438 9.9609375 C3.74557178 13.66557073 4.09817231 16.39322322 3 20 C0.18343868 17.18343868 0.01049136 15.38398395 -0.09765625 11.42578125 C-0.09103244 10.05465342 -0.07914198 8.68354283 -0.0625 7.3125 C-0.05798828 6.61060547 -0.05347656 5.90871094 -0.04882812 5.18554688 C-0.03706927 3.45699462 -0.01913454 1.72848635 0 0 Z " fill="#1F1D18" transform="translate(116,212)"/>
<path d="M0 0 C1.60597325 0.45196245 3.20972508 0.91182327 4.8125 1.375 C6.15248047 1.75785156 6.15248047 1.75785156 7.51953125 2.1484375 C10 3 10 3 13 5 C12.67 5.66 12.34 6.32 12 7 C7.27934033 5.45730076 2.58335908 3.92205381 -2 2 C-1.34 1.34 -0.68 0.68 0 0 Z " fill="#223130" transform="translate(186,600)"/>
<path d="M0 0 C0.66 0 1.32 0 2 0 C2 0.66 2 1.32 2 2 C3.32 2.33 4.64 2.66 6 3 C6 3.66 6 4.32 6 5 C6.598125 5.103125 7.19625 5.20625 7.8125 5.3125 C10.32857968 6.1032679 11.23754346 7.08428637 13 9 C13.99 9.66 14.98 10.32 16 11 C15.01 11.33 14.02 11.66 13 12 C10.62828324 10.47300428 8.50340432 8.94164766 6.3125 7.1875 C5.70599609 6.72279297 5.09949219 6.25808594 4.47460938 5.77929688 C2.93817819 4.57469335 1.46346226 3.29227267 0 2 C0 1.34 0 0.68 0 0 Z " fill="#162323" transform="translate(121,562)"/>
<path d="M0 0 C4.59808129 0.53894425 7.86784369 1.76571528 11.875 4.0625 C12.84179688 4.61035156 13.80859375 5.15820312 14.8046875 5.72265625 C15.89136719 6.35494141 15.89136719 6.35494141 17 7 C17 7.66 17 8.32 17 9 C10.83643195 7.3341708 5.51740344 4.12194714 0 1 C0 0.67 0 0.34 0 0 Z " fill="#131C1D" transform="translate(169,424)"/>
<path d="M0 0 C6.6 0 13.2 0 20 0 C20 0.66 20 1.32 20 2 C21.98 2 23.96 2 26 2 C26 2.33 26 2.66 26 3 C24.7625 3.020625 23.525 3.04125 22.25 3.0625 C21.55390625 3.07410156 20.8578125 3.08570313 20.140625 3.09765625 C18 3 18 3 16.1875 2.53125 C13.06105362 1.77197016 9.9573467 1.64538358 6.75 1.4375 C5.48671875 1.35371094 4.2234375 1.26992188 2.921875 1.18359375 C1.95765625 1.12300781 0.9934375 1.06242188 0 1 C0 0.67 0 0.34 0 0 Z " fill="#CAD7D6" transform="translate(333,0)"/>
<path d="M0 0 C0.33 0 0.66 0 1 0 C2.32791716 5.31166864 2.74706142 10.75881575 1 16 C0.01 15.67 -0.98 15.34 -2 15 C-1.34 10.05 -0.68 5.1 0 0 Z " fill="#182724" transform="translate(6,253)"/>
<path d="M0 0 C0.85464844 -0.01675781 1.70929688 -0.03351562 2.58984375 -0.05078125 C5.5046356 0.37745831 6.87576679 1.38959539 9.0625 3.3125 C7.16674749 3.33971176 5.27088021 3.35899136 3.375 3.375 C1.79138672 3.39240234 1.79138672 3.39240234 0.17578125 3.41015625 C-2.66160262 3.32115425 -5.1813919 2.96189838 -7.9375 2.3125 C-4.73125113 0.17500075 -3.71291897 0.01675001 0 0 Z " fill="#162625" transform="translate(246.9375,617.6875)"/>
<path d="M0 0 C0.33 0 0.66 0 1 0 C1 2.97 1 5.94 1 9 C0.01 9.33 -0.98 9.66 -2 10 C-2 10.66 -2 11.32 -2 12 C-2.66 12 -3.32 12 -4 12 C-3.52494322 10.18641846 -3.04483958 8.37415821 -2.5625 6.5625 C-2.29566406 5.55316406 -2.02882813 4.54382813 -1.75390625 3.50390625 C-1 1 -1 1 0 0 Z " fill="#26312C" transform="translate(23,197)"/>
<path d="M0 0 C0 0.66 0 1.32 0 2 C0.99 2.33 1.98 2.66 3 3 C-2.27315333 2.5547115 -7.01770224 1.91626837 -12 0 C-7.89962722 -3.07527959 -4.53236941 -1.35971082 0 0 Z " fill="#0D201C" transform="translate(403,12)"/>
<path d="M0 0 C4.47238653 1.41807378 8.71146306 3.11304374 13 5 C11.328125 6.1484375 11.328125 6.1484375 9 7 C6.421875 6.1015625 6.421875 6.1015625 3.75 4.625 C2.85796875 4.14289062 1.9659375 3.66078125 1.046875 3.1640625 C0.37140625 2.77992188 -0.3040625 2.39578125 -1 2 C-0.67 1.34 -0.34 0.68 0 0 Z " fill="#182625" transform="translate(171,593)"/>
<path d="M0 0 C0.66 0.66 1.32 1.32 2 2 C0.375 4.9375 0.375 4.9375 -2 8 C-5.25 8.875 -5.25 8.875 -8 9 C-7.04270084 7.87411986 -6.08412105 6.7493285 -5.125 5.625 C-4.59132813 4.99851562 -4.05765625 4.37203125 -3.5078125 3.7265625 C-2.38567993 2.44163349 -1.20628025 1.20628025 0 0 Z " fill="#17231F" transform="translate(352,516)"/>
<path d="M0 0 C3.23861303 1.44424635 5.61969163 3.25772247 8.25 5.625 C8.95640625 6.25664062 9.6628125 6.88828125 10.390625 7.5390625 C10.92171875 8.02117187 11.4528125 8.50328125 12 9 C11.34 9.66 10.68 10.32 10 11 C9.44570312 10.43410156 8.89140625 9.86820312 8.3203125 9.28515625 C7.59585938 8.55167969 6.87140625 7.81820313 6.125 7.0625 C5.40570313 6.33160156 4.68640625 5.60070312 3.9453125 4.84765625 C2.12972808 2.94332001 2.12972808 2.94332001 0 2 C0 1.34 0 0.68 0 0 Z " fill="#242B2C" transform="translate(226,458)"/>
<path d="M0 0 C3.2578125 0.2421875 3.2578125 0.2421875 7.125 0.875 C8.40632813 1.07867188 9.68765625 1.28234375 11.0078125 1.4921875 C11.99523437 1.65976562 12.98265625 1.82734375 14 2 C14 2.33 14 2.66 14 3 C8.03654233 4.0006709 3.71271093 4.0662997 -2 2 C-1.34 1.34 -0.68 0.68 0 0 Z " fill="#1D2221" transform="translate(288,531)"/>
<path d="M0 0 C3.57011026 3.732388 4.10913442 8.0949989 5 13 C4.01 12.67 3.02 12.34 2 12 C0.19204568 7.9083139 -0.21156222 4.44280672 0 0 Z " fill="#111E1E" transform="translate(19,416)"/>
<path d="M0 0 C0.33 0 0.66 0 1 0 C2.31281522 6.56407612 1.52653315 10.83354621 -1 17 C-1.33 17 -1.66 17 -2 17 C-1.85899143 14.72886197 -1.71203245 12.45809275 -1.5625 10.1875 C-1.48128906 8.92292969 -1.40007813 7.65835937 -1.31640625 6.35546875 C-1 3 -1 3 0 0 Z " fill="#102624" transform="translate(620,353)"/>
<path d="M0 0 C0.33 0 0.66 0 1 0 C0.88512252 1.58409994 0.75765492 3.16728963 0.625 4.75 C0.55539063 5.63171875 0.48578125 6.5134375 0.4140625 7.421875 C0.00149945 9.99066382 -0.71160957 11.75841015 -2 14 C-2.66 14 -3.32 14 -4 14 C-3.52372025 12.04096255 -3.04388577 10.08278903 -2.5625 8.125 C-2.29566406 7.03445312 -2.02882813 5.94390625 -1.75390625 4.8203125 C-1 2 -1 2 0 0 Z " fill="#1B2723" transform="translate(15,221)"/>
<path d="M0 0 C2.86453858 3.41016497 4.34703566 6.90694544 6 11 C5.34 11.66 4.68 12.32 4 13 C3.13372601 11.40233897 2.28233535 9.79660056 1.4375 8.1875 C0.96183594 7.29417969 0.48617187 6.40085938 -0.00390625 5.48046875 C-1 3 -1 3 0 0 Z " fill="#172423" transform="translate(583,156)"/>
<path d="M0 0 C4.02627499 1.34209166 4.75169153 3.48701801 7 7 C8.62351109 8.79394446 8.62351109 8.79394446 10 10 C7 10 7 10 5.17578125 8.3203125 C4.56089844 7.59585938 3.94601562 6.87140625 3.3125 6.125 C2.68988281 5.40570312 2.06726563 4.68640625 1.42578125 3.9453125 C0 2 0 2 0 0 Z " fill="#1E2727" transform="translate(262,514)"/>
<path d="M0 0 C0.33 0 0.66 0 1 0 C1.75612577 5.23471686 2.2063366 9.77254141 1 15 C-1.61437258 11.07844114 -1.21703011 7.55763232 -1 3 C-0.67 2.01 -0.34 1.02 0 0 Z " fill="#1B2423" transform="translate(619,255)"/>
<path d="M0 0 C4.50802601 1.25805377 7.4912812 2.90407165 11 6 C8 7 8 7 5.95703125 6.07421875 C4.89548828 5.38779297 4.89548828 5.38779297 3.8125 4.6875 C3.09707031 4.23761719 2.38164062 3.78773438 1.64453125 3.32421875 C1.10183594 2.88722656 0.55914062 2.45023438 0 2 C0 1.34 0 0.68 0 0 Z " fill="#131E1E" transform="translate(147,580)"/>
<path d="M0 0 C3.63 1.65 7.26 3.3 11 5 C10.67 5.66 10.34 6.32 10 7 C6.12697862 5.85569823 2.99736561 4.76679902 0 2 C0 1.34 0 0.68 0 0 Z " fill="#1A2726" transform="translate(448,29)"/>
<path d="M0 0 C1.485 0.99 1.485 0.99 3 2 C3.29296875 4.3828125 3.29296875 4.3828125 3.1875 7.125 C3.16042969 8.03507812 3.13335937 8.94515625 3.10546875 9.8828125 C3.07066406 10.58148438 3.03585937 11.28015625 3 12 C0.50494038 9.50494038 0.64051624 8.32671112 0.375 4.875 C0.30023438 3.96492188 0.22546875 3.05484375 0.1484375 2.1171875 C0.09945313 1.41851562 0.05046875 0.71984375 0 0 Z " fill="#271511" transform="translate(328,478)"/>
<path d="M0 0 C0.99 0.66 1.98 1.32 3 2 C2.34 2 1.68 2 1 2 C1 2.99 1 3.98 1 5 C-0.98 5 -2.96 5 -5 5 C-4 2 -4 2 -1.9375 0.8125 C-1.298125 0.544375 -0.65875 0.27625 0 0 Z " fill="#181D1D" transform="translate(441,427)"/>
<path d="M0 0 C0.66 0 1.32 0 2 0 C2.33 2.97 2.66 5.94 3 9 C2.01 8.67 1.02 8.34 0 8 C-0.79953138 4.71303767 -1.09658936 3.28976808 0 0 Z " fill="#2C2017" transform="translate(122,240)"/>
<path d="M0 0 C2.95929119 2.75520215 5.03681826 5.46627288 7 9 C6.34 9.66 5.68 10.32 5 11 C2 6.25 2 6.25 2 4 C1.34 4 0.68 4 0 4 C-0.33 3.01 -0.66 2.02 -1 1 C-0.67 0.67 -0.34 0.34 0 0 Z " fill="#1A2A29" transform="translate(563,125)"/>
<path d="M0 0 C0.66 0.33 1.32 0.66 2 1 C1.01 3.97 0.02 6.94 -1 10 C-1.66 9.67 -2.32 9.34 -3 9 C-2.01 6.03 -1.02 3.06 0 0 Z " fill="#121312" transform="translate(328,489)"/>
<path d="M0 0 C0.33 0.99 0.66 1.98 1 3 C-0.8125 4.5625 -0.8125 4.5625 -3 6 C-3.99 5.67 -4.98 5.34 -6 5 C-6 4.34 -6 3.68 -6 3 C-4.02 2.01 -2.04 1.02 0 0 Z " fill="#1A2523" transform="translate(521,387)"/>
<path d="M0 0 C0.99 0.33 1.98 0.66 3 1 C3 1.99 3 2.98 3 4 C2.34 4 1.68 4 1 4 C0.67 5.32 0.34 6.64 0 8 C-0.99 7.67 -1.98 7.34 -3 7 C-2.01 4.69 -1.02 2.38 0 0 Z " fill="#152220" transform="translate(32,175)"/>
<path d="M0 0 C-3.52679099 2.35119399 -5.02879485 2.21443452 -9.1875 2.125 C-10.27417969 2.10695313 -11.36085938 2.08890625 -12.48046875 2.0703125 C-13.72763672 2.03550781 -13.72763672 2.03550781 -15 2 C-15 1.67 -15 1.34 -15 1 C-13.25215171 0.63536268 -11.50159498 0.2836922 -9.75 -0.0625 C-8.28820312 -0.35833984 -8.28820312 -0.35833984 -6.796875 -0.66015625 C-4.131881 -0.98397535 -2.51128277 -0.85503199 0 0 Z " fill="#BDC4C6" transform="translate(377,622)"/>
<path d="M0 0 C0.6875 1.625 0.6875 1.625 1 4 C-0.4375 7.25 -0.4375 7.25 -2 10 C-2.66 9.67 -3.32 9.34 -4 9 C-2.94124926 5.59687262 -1.99097846 2.98646769 0 0 Z " fill="#0E1D1D" transform="translate(590,453)"/>
<path d="M0 0 C-1.0975223 2.99324263 -1.67682892 3.84610901 -4.625 5.25 C-5.40875 5.4975 -6.1925 5.745 -7 6 C-7.33 5.01 -7.66 4.02 -8 3 C-2.25 0 -2.25 0 0 0 Z " fill="#1D2725" transform="translate(471,413)"/>
<path d="M0 0 C0 3.10551666 -0.5393715 4.35261084 -2 7 C-2.66 7 -3.32 7 -4 7 C-4.33 7.99 -4.66 8.98 -5 10 C-5.3125 7.8125 -5.3125 7.8125 -5 5 C-2.5 2.1875 -2.5 2.1875 0 0 Z " fill="#1B0705" transform="translate(289,476)"/>
<path d="M0 0 C3.37705625 0.53725895 6.696686 1.11064623 10 2 C10 2.66 10 3.32 10 4 C8.02 4 6.04 4 4 4 C4 3.34 4 2.68 4 2 C2.68 1.34 1.36 0.68 0 0 Z " fill="#09231E" transform="translate(352,188)"/>
<path d="M0 0 C0.99 0.33 1.98 0.66 3 1 C4.6875 4.5625 4.6875 4.5625 6 8 C5.01 8 4.02 8 3 8 C0 2.25 0 2.25 0 0 Z " fill="#142220" transform="translate(589,171)"/>
<path d="M0 0 C6.625 0.75 6.625 0.75 10 3 C6.65155086 4.05236973 5.40920111 4.20005388 2.1875 2.625 C1.465625 2.08875 0.74375 1.5525 0 1 C0 0.67 0 0.34 0 0 Z " fill="#1C1C1C" transform="translate(299,509)"/>
<path d="M0 0 C5.75 1.875 5.75 1.875 8 3 C8 3.66 8 4.32 8 5 C6.68 5 5.36 5 4 5 C4 4.34 4 3.68 4 3 C2.68 2.67 1.36 2.34 0 2 C0 1.34 0 0.68 0 0 Z " fill="#0F1414" transform="translate(100,387)"/>
<path d="M0 0 C0.33 0 0.66 0 1 0 C1.09038099 5.15171623 0.84681133 9.91913204 0 15 C-0.33 15 -0.66 15 -1 15 C-2.01603857 9.20858017 -1.96263236 5.5415502 0 0 Z " fill="#04110E" transform="translate(622,344)"/>
<path d="M0 0 C1.65 0 3.3 0 5 0 C5 1.32 5 2.64 5 4 C4.01 4.33 3.02 4.66 2 5 C1.34 3.35 0.68 1.7 0 0 Z " fill="#250B07" transform="translate(213,346)"/>
<path d="M0 0 C0.99 0.33 1.98 0.66 3 1 C3 1.66 3 2.32 3 3 C3.66 3 4.32 3 5 3 C5 3.66 5 4.32 5 5 C5.66 5 6.32 5 7 5 C6.67 5.99 6.34 6.98 6 8 C1.3125 4.38671875 1.3125 4.38671875 0 3 C0 2.01 0 1.02 0 0 Z " fill="#1E1D1E" transform="translate(209,131)"/>
<path d="M0 0 C0.33 0 0.66 0 1 0 C0.67 3.3 0.34 6.6 0 10 C-0.99 9.67 -1.98 9.34 -3 9 C-2.01 6.03 -1.02 3.06 0 0 Z " fill="#1C2929" transform="translate(602,425)"/>
<path d="M0 0 C1.46726798 3.81489674 0.43336419 6.29011622 -1 10 C-1.33 10 -1.66 10 -2 10 C-2 7.03 -2 4.06 -2 1 C-1.34 0.67 -0.68 0.34 0 0 Z " fill="#080F10" transform="translate(612,397)"/>
<path d="M0 0 C0.33 0 0.66 0 1 0 C1.20140476 3.62528568 0.85776765 5.86501708 -1 9 C-1.66 9 -2.32 9 -3 9 C-2.44271087 5.65626525 -1.64826111 2.96687001 0 0 Z " fill="#D3490F" transform="translate(131,99)"/>
<path d="M0 0 C3.24208567 0.35049575 4.61527704 0.56221181 6.8125 3.0625 C7.204375 3.701875 7.59625 4.34125 8 5 C4.45908384 5 3.60957208 4.26162914 1 2 C0.67 1.34 0.34 0.68 0 0 Z " fill="#1F2D2C" transform="translate(516,76)"/>
<path d="M0 0 C3.82097239 0.53069061 6.06171403 1.49701566 9 4 C8.01 4.33 7.02 4.66 6 5 C2.8125 3.125 2.8125 3.125 0 1 C0 0.67 0 0.34 0 0 Z " fill="#132222" transform="translate(471,43)"/>
<path d="M0 0 C5.75 0.75 5.75 0.75 8 3 C5.39417629 3.93065133 4.35801776 4.14917407 1.75 3.0625 C1.1725 2.711875 0.595 2.36125 0 2 C0 1.34 0 0.68 0 0 Z " fill="#122222" transform="translate(462,38)"/>
<path d="M0 0 C2.5 2.3125 2.5 2.3125 5 5 C5 5.99 5 6.98 5 8 C2.5 5.6875 2.5 5.6875 0 3 C0 2.01 0 1.02 0 0 Z " fill="#192727" transform="translate(79,521)"/>
<path d="M0 0 C1.98 0 3.96 0 6 0 C4.35 1.65 2.7 3.3 1 5 C0.67 3.35 0.34 1.7 0 0 Z " fill="#D7591F" transform="translate(283,476)"/>
<path d="M0 0 C1.98 1.65 3.96 3.3 6 5 C5.34 5.66 4.68 6.32 4 7 C2.35 5.02 0.7 3.04 -1 1 C-0.67 0.67 -0.34 0.34 0 0 Z " fill="#232E2F" transform="translate(537,94)"/>
<path d="M0 0 C0.99 0.33 1.98 0.66 3 1 C0.6875 3.0625 0.6875 3.0625 -2 5 C-2.99 4.67 -3.98 4.34 -5 4 C-2.6875 1.9375 -2.6875 1.9375 0 0 Z " fill="#192323" transform="translate(159,38)"/>
</svg>
