<?xml version="1.0" encoding="UTF-8"?>
<svg version="1.1" xmlns="http://www.w3.org/2000/svg" width="354" height="354">
<path d="M0 0 C116.82 0 233.64 0 354 0 C354 116.82 354 233.64 354 354 C237.18 354 120.36 354 0 354 C0 237.18 0 120.36 0 0 Z " fill="#000001" transform="translate(0,0)"/>
<path d="M0 0 C56.1 0 112.2 0 170 0 C170 0.33 170 0.66 170 1 C169.11368896 1.03589233 169.11368896 1.03589233 168.20947266 1.07250977 C132.55209107 2.73807133 98.23130747 14.99405777 70 37 C68.64648438 38.0209375 68.64648438 38.0209375 67.265625 39.0625 C53.53457947 49.7873403 41.56124727 62.44875872 32 77 C31.61295898 77.58539551 31.22591797 78.17079102 30.82714844 78.77392578 C16.08232564 101.40566018 4.96172379 127.86836253 3 155 C2.83951172 156.5778125 2.83951172 156.5778125 2.67578125 158.1875 C-1.5326992 202.78646164 10.32310448 247.4934564 38 283 C39.0209375 284.35351562 39.0209375 284.35351562 40.0625 285.734375 C50.81150293 299.49635602 63.47850273 311.3460664 78 321 C79.04285156 321.70382812 80.08570312 322.40765625 81.16015625 323.1328125 C89.60847737 328.57989691 98.59105503 332.83038669 107.73608398 336.96923828 C109.20667411 337.63879846 110.67032951 338.32388351 112.12524414 339.02685547 C127.84834762 346.44891935 146.64489854 350.31151667 164 351 C165.01610352 351.04237793 166.03220703 351.08475586 167.07910156 351.12841797 C212.01063425 352.69913154 258.27630156 339.47176127 292.03417969 308.65185547 C294.54129578 306.30602678 297.007604 303.92204688 299.45507812 301.51416016 C300.72856027 300.26603495 302.02535403 299.04174128 303.328125 297.82421875 C332.73304815 269.9134482 350.86104358 225.65488027 352.203125 185.42578125 C352.56073413 162.4641061 350.62175985 139.75796726 343 118 C342.77473633 117.33436035 342.54947266 116.6687207 342.31738281 115.98291016 C336.658345 99.51756323 327.44276601 83.86693384 317 70 C316.3296875 69.10667969 315.659375 68.21335937 314.96875 67.29296875 C290.70919347 36.38013831 257.53752251 16.51537242 220 6 C218.18822266 5.49146484 218.18822266 5.49146484 216.33984375 4.97265625 C205.13343536 2.23573269 193.47534012 1.78774519 182 1 C182 0.67 182 0.34 182 0 C238.76 0 295.52 0 354 0 C354 116.82 354 233.64 354 354 C237.18 354 120.36 354 0 354 C0 237.18 0 120.36 0 0 Z " fill="#FCFCFC" transform="translate(0,0)"/>
<path d="M0 0 C1.10939941 0.01027222 1.10939941 0.01027222 2.24121094 0.02075195 C30.24252428 0.81509435 53.63189313 16.7123283 73.36669922 35.0612793 C91.6874265 52.38506111 91.6874265 52.38506111 114.375 60.8125 C124.24747061 60.366753 130.05972502 57.02557512 137.44921875 50.59765625 C144.52424267 44.8859946 152.16129328 43.09924692 161.125 43.4375 C161.785 43.7675 162.445 44.0975 163.125 44.4375 C163.17398438 45.53964844 163.22296875 46.64179687 163.2734375 47.77734375 C163.46498409 51.82410265 163.70171537 55.86682873 163.96289062 59.90966797 C164.06734589 61.53847796 164.16549173 63.16771099 164.25585938 64.79736328 C164.77613308 73.55718902 165.67659196 80.20792041 171.37890625 87.26171875 C181.91418456 100.38957114 180.17856289 121.68446632 179.125 137.4375 C178.3981528 142.97628633 176.9155635 148.14635389 175.125 153.4375 C174.82464844 154.43523437 174.52429688 155.43296875 174.21484375 156.4609375 C171.15494112 165.91881835 165.70901226 174.05542564 159.125 181.4375 C159.7540625 181.42847656 160.383125 181.41945312 161.03125 181.41015625 C168.60495916 181.67249859 171.99112328 184.07994815 177.125 189.4375 C177.76695312 190.03433594 178.40890625 190.63117188 179.0703125 191.24609375 C182.66687687 194.62445651 185.47079264 197.68165385 187.125 202.4375 C186.8125 205.3125 186.8125 205.3125 186.125 207.4375 C177.21484877 208.4275168 172.0231307 204.44550636 165.1484375 199.140625 C161.32388645 196.0527289 157.53654775 192.98415855 154.125 189.4375 C150.91276583 190.78038174 148.58703838 192.69586759 146.01586914 195.01635742 C138.70703959 201.59713033 130.81693522 206.48748065 122.24707031 211.25439453 C119.4673501 212.80415571 116.70976281 214.3912403 113.95092773 215.9777832 C111.34735114 217.47328299 108.73648504 218.95586507 106.125 220.4375 C106.71925781 220.57849121 107.31351562 220.71948242 107.92578125 220.86474609 C110.6589709 221.5135067 113.39198626 222.16299874 116.125 222.8125 C117.05957031 223.03421875 117.99414062 223.2559375 118.95703125 223.484375 C120.33955078 223.81308594 120.33955078 223.81308594 121.75 224.1484375 C123.13288208 224.47581909 123.13288208 224.47581909 124.54370117 224.80981445 C126.0901045 225.18584802 127.6334033 225.57563657 129.16918945 225.99291992 C135.1388329 227.61410375 141.17525532 228.30098354 147.3125 229 C148.96946899 229.19396362 148.96946899 229.19396362 150.65991211 229.3918457 C158.13820421 230.25224839 165.60832903 231.00413328 173.125 231.4375 C173.455 232.7575 173.785 234.0775 174.125 235.4375 C165.59430012 235.58522149 157.28369522 235.26043474 148.8125 234.25 C147.70672607 234.12052979 146.60095215 233.99105957 145.46166992 233.85766602 C132.57620808 232.25373116 119.60872436 229.93903971 107.125 226.30859375 C100.79143804 224.46955167 96.92750409 225.81691531 91.07421875 228.29296875 C81.43416373 232.03407619 71.24709185 233.91549586 61.07421875 235.53125 C57.9653759 236.11710014 55.36775164 237.18806381 52.4921875 238.49609375 C46.24413103 241.086128 40.25213028 241.08192499 33.5625 241 C32.33192871 240.99194336 31.10135742 240.98388672 29.83349609 240.97558594 C17.60407977 240.70913586 6.12313527 238.95796326 -3.875 231.4375 C-7.0230865 226.71537025 -6.52997961 221.96093633 -5.875 216.4375 C-3.79267485 210.2709577 -0.02576872 205.18903483 3.6796875 199.91015625 C5.35422093 197.04534635 6.24300743 194.221473 7.25 191.0625 C11.22447836 180.14542322 21.29759167 173.78887176 30.4765625 167.33203125 C33.10564791 165.45134331 35.61632108 163.47530701 38.125 161.4375 C41.72255984 158.53642775 45.35864118 155.70200961 49.0625 152.9375 C50.40634766 151.93203125 50.40634766 151.93203125 51.77734375 150.90625 C54.125 149.4375 54.125 149.4375 57.125 149.4375 C57.125 148.7775 57.125 148.1175 57.125 147.4375 C59.0390625 146.02734375 59.0390625 146.02734375 61.75 144.375 C63.26013672 143.44107422 63.26013672 143.44107422 64.80078125 142.48828125 C65.89777344 141.81152344 66.99476563 141.13476562 68.125 140.4375 C70.39918147 138.98403594 72.66998257 137.52624393 74.9375 136.0625 C76.13800681 135.29164482 77.33852776 134.52081168 78.5390625 133.75 C80.85393557 132.26088575 83.15907859 130.75941568 85.4609375 129.25 C86.57782814 128.5203787 87.6950179 127.7912151 88.8125 127.0625 C89.3688916 126.69729248 89.9252832 126.33208496 90.49853516 125.95581055 C93.96544987 123.71589562 97.49189735 121.66717532 101.125 119.70703125 C102.41337769 119.00102783 102.41337769 119.00102783 103.7277832 118.28076172 C105.41297019 117.36423138 107.10918538 116.46761024 108.81713867 115.59423828 C113.01663176 113.29757917 115.44869552 111.67468521 117.17578125 107.09765625 C117.48902344 105.88980469 117.80226562 104.68195313 118.125 103.4375 C115.35616804 101.95456418 112.5846027 100.47681138 109.8125 99 C109.02681641 98.57912109 108.24113281 98.15824219 107.43164062 97.72460938 C106.67431641 97.32177734 105.91699219 96.91894531 105.13671875 96.50390625 C104.44022217 96.13209229 103.74372559 95.76027832 103.02612305 95.37719727 C97.77044571 92.77939297 93.07548885 92.59323361 87.53125 94.1796875 C79.10334308 97.72218684 73.54218297 103.60153083 67.52758789 110.34350586 C61.20506895 117.17662842 54.44344833 120.40338199 45.08984375 120.8984375 C43.41382495 120.89350077 41.73772439 120.86433264 40.0625 120.8125 C38.72264038 120.79098877 38.72264038 120.79098877 37.35571289 120.76904297 C13.1992929 120.19251743 13.1992929 120.19251743 7.125 116.4375 C7.5458301 111.52781551 9.47388636 109.62251402 13.125 106.4375 C15.1488266 104.9146987 17.18515274 103.42054447 19.2578125 101.96484375 C22.37737165 99.41307047 23.97107037 97.6332902 24.49609375 93.5546875 C24.51800781 92.48476562 24.53992188 91.41484375 24.5625 90.3125 C25.08371333 81.2065965 27.63286837 73.92963163 34.125 67.4375 C36.07351558 65.96344566 38.02893996 64.70488514 40.125 63.4375 C39.59390625 62.71304688 39.0628125 61.98859375 38.515625 61.2421875 C32.04201808 52.38232402 32.04201808 52.38232402 29.8125 48.9375 C28.29422088 46.49832238 28.29422088 46.49832238 26.625 45 C23.98465162 42.24963711 21.125 38.29865847 21.125 34.4375 C20.361875 34.169375 19.59875 33.90125 18.8125 33.625 C16.23511382 32.48615495 14.85545136 31.62333329 13.125 29.4375 C13.125 28.7775 13.125 28.1175 13.125 27.4375 C12.444375 27.210625 11.76375 26.98375 11.0625 26.75 C8.12421355 25.43714861 5.78645374 23.77561563 3.21875 21.85546875 C0.74235178 20.17835578 -1.83851259 18.86293912 -4.5 17.5 C-9.14353579 15.00553862 -12.16128642 12.99266208 -14.875 8.4375 C-15.0625 5.75 -15.0625 5.75 -13.875 3.4375 C-9.29984947 0.57197456 -5.2946605 -0.07635355 0 0 Z " fill="#BCBCBE" transform="translate(90.875,59.5625)"/>
<path d="M0 0 C1.10939941 0.01027222 1.10939941 0.01027222 2.24121094 0.02075195 C30.24252428 0.81509435 53.63189313 16.7123283 73.36669922 35.0612793 C92.6148893 52.9044712 112.71680746 62.39447042 138.125 68.4375 C137.795 69.4275 137.465 70.4175 137.125 71.4375 C136.05121094 71.13714844 134.97742188 70.83679688 133.87109375 70.52734375 C132.43508291 70.14253039 130.99887417 69.75845496 129.5625 69.375 C128.50579102 69.07625977 128.50579102 69.07625977 127.42773438 68.77148438 C122.65243842 67.51714396 119.04650777 67.41421621 114.125 68.4375 C113.155625 68.623125 112.18625 68.80875 111.1875 69 C110.506875 69.144375 109.82625 69.28875 109.125 69.4375 C110.42560931 76.68107814 110.42560931 76.68107814 113.125 83.4375 C114.75683107 84.49339069 116.43292999 85.4811126 118.125 86.4375 C120.85983855 88.69539083 123.49664288 91.05697804 126.125 93.4375 C125.35882798 97.25239819 123.9643733 98.77558753 121.125 101.4375 C120.795 102.0975 120.465 102.7575 120.125 103.4375 C114.39777974 101.74252827 109.41450774 99.07462473 104.22265625 96.18359375 C98.36526189 93.1025366 93.87021941 92.48426613 87.31640625 94.15234375 C79.07778662 97.98397517 73.53565166 103.60885201 67.52758789 110.34350586 C61.20506895 117.17662842 54.44344833 120.40338199 45.08984375 120.8984375 C43.41382495 120.89350077 41.73772439 120.86433264 40.0625 120.8125 C38.72264038 120.79098877 38.72264038 120.79098877 37.35571289 120.76904297 C13.1992929 120.19251743 13.1992929 120.19251743 7.125 116.4375 C7.5458301 111.52781551 9.47388636 109.62251402 13.125 106.4375 C15.1488266 104.9146987 17.18515274 103.42054447 19.2578125 101.96484375 C22.37737165 99.41307047 23.97107037 97.6332902 24.49609375 93.5546875 C24.51800781 92.48476562 24.53992188 91.41484375 24.5625 90.3125 C25.08371333 81.2065965 27.63286837 73.92963163 34.125 67.4375 C36.07351558 65.96344566 38.02893996 64.70488514 40.125 63.4375 C39.59390625 62.71304688 39.0628125 61.98859375 38.515625 61.2421875 C32.04201808 52.38232402 32.04201808 52.38232402 29.8125 48.9375 C28.29422088 46.49832238 28.29422088 46.49832238 26.625 45 C23.98465162 42.24963711 21.125 38.29865847 21.125 34.4375 C20.361875 34.169375 19.59875 33.90125 18.8125 33.625 C16.23511382 32.48615495 14.85545136 31.62333329 13.125 29.4375 C13.125 28.7775 13.125 28.1175 13.125 27.4375 C12.444375 27.210625 11.76375 26.98375 11.0625 26.75 C8.12421355 25.43714861 5.78645374 23.77561563 3.21875 21.85546875 C0.74235178 20.17835578 -1.83851259 18.86293912 -4.5 17.5 C-9.14353579 15.00553862 -12.16128642 12.99266208 -14.875 8.4375 C-15.0625 5.75 -15.0625 5.75 -13.875 3.4375 C-9.29984947 0.57197456 -5.2946605 -0.07635355 0 0 Z " fill="#BBBCBE" transform="translate(90.875,59.5625)"/>
<path d="M0 0 C3.6875 1.5 3.6875 1.5 6 3 C6 3.66 6 4.32 6 5 C6.66 5 7.32 5 8 5 C8.495 7.97 8.495 7.97 9 11 C11.6905528 9.77992056 11.6905528 9.77992056 14 8 C15.99958364 7.95919217 18.00045254 7.95745644 20 8 C20.103125 7.38125 20.20625 6.7625 20.3125 6.125 C21 4 21 4 24 2 C27.65029401 0.60201506 30.04385203 0 34 0 C34 0.66 34 1.32 34 2 C35.32 2 36.64 2 38 2 C43 7.11363636 43 7.11363636 43 11 C43.99 11.33 44.98 11.66 46 12 C46.71883676 16.55263281 45.59289112 18.9635982 43.1875 22.6875 C40.83994587 26.32648251 39.46570895 29.40514453 38.5 33.625 C37.18172225 39.13992527 34.79072947 42.83853905 31 47 C30.39671875 47.71414062 29.7934375 48.42828125 29.171875 49.1640625 C24.91249595 52.76461673 19.34862715 52.15105955 14 52 C7.25134738 51.27223634 0.30659556 50.50330357 -5 46 C-5.721875 45.71125 -6.44375 45.4225 -7.1875 45.125 C-9 44 -9 44 -9.75 41.75 C-10.0167323 38.81594472 -10.06847898 35.94459603 -10 33 C-10.99 32.67 -11.98 32.34 -13 32 C-13 28.7 -13 25.4 -13 22 C-17.29 21.67 -21.58 21.34 -26 21 C-26.33 21.99 -26.66 22.98 -27 24 C-27.66 24 -28.32 24 -29 24 C-31.79139063 24.28394427 -34.58147636 24.57802874 -37.37109375 24.87890625 C-40 25 -40 25 -43 24 C-43 23.01 -43 22.02 -43 21 C-41.0859375 19.4921875 -41.0859375 19.4921875 -38.375 17.875 C-37.37726563 17.2665625 -36.37953125 16.658125 -35.3515625 16.03125 C-34.24554688 15.3609375 -33.13953125 14.690625 -32 14 C-29.57345034 12.47360054 -27.16166066 10.92477685 -24.75 9.375 C-24.14615479 8.9927124 -23.54230957 8.6104248 -22.92016602 8.21655273 C-19.88206017 6.28023752 -17.05947366 4.26287579 -14.3125 1.9375 C-9.56219385 -0.84098096 -5.37712458 -0.77508102 0 0 Z " fill="#EE4531" transform="translate(191,186)"/>
<path d="M0 0 C0.04898438 1.09054688 0.09796875 2.18109375 0.1484375 3.3046875 C0.6789199 14.26472347 1.67399375 25.10872538 3 36 C2.34 36 1.68 36 1 36 C0.938125 36.66 0.87625 37.32 0.8125 38 C-1.18177415 45.36347378 -5.86903515 50.64859518 -12 55 C-15.16731877 56.67040717 -18.43677341 58.02231074 -21.75 59.375 C-30.8766244 63.28093879 -38.04302828 67.84371388 -45.66015625 74.23046875 C-48 76 -48 76 -50 76 C-49.67 74.02 -49.34 72.04 -49 70 C-49.66 69.67 -50.32 69.34 -51 69 C-50.4225 68.505 -49.845 68.01 -49.25 67.5 C-46.80344265 64.78160294 -45.4985535 62.17931245 -43.94140625 58.90625 C-42.85231246 56.70094804 -41.66441002 54.81572002 -40 53 C-39.34 53 -38.68 53 -38 53 C-37.56337964 49.10318567 -37.56337964 49.10318567 -39.57421875 47.18359375 C-40.27160156 46.60738281 -40.96898437 46.03117187 -41.6875 45.4375 C-42.37199219 44.85871094 -43.05648437 44.27992188 -43.76171875 43.68359375 C-45.98086342 41.92031451 -45.98086342 41.92031451 -48.62109375 40.625 C-51.61306901 38.58122051 -52.2220672 36.96134589 -53.375 33.5625 C-53.71273437 32.61503906 -54.05046875 31.66757813 -54.3984375 30.69140625 C-55.00742344 27.96678734 -54.94191735 26.58721453 -54 24 C-43.95640456 20.95105138 -35.93302268 23.36774899 -26 26 C-25.67 25.34 -25.34 24.68 -25 24 C-26.07314453 23.85304688 -26.07314453 23.85304688 -27.16796875 23.703125 C-35.05219659 22.51998085 -42.43992349 20.51189639 -50 18 C-50 17.67 -50 17.34 -50 17 C-48.45892578 16.72349609 -48.45892578 16.72349609 -46.88671875 16.44140625 C-38.00352147 14.65251114 -32.29776385 12.37224124 -25.46484375 6.125 C-19.36038958 0.86220591 -7.81014846 -3.90507423 0 0 Z " fill="#949497" transform="translate(254,104)"/>
<path d="M0 0 C0.33 0.66 0.66 1.32 1 2 C3.02463255 2.65213292 3.02463255 2.65213292 5 3 C5 3.66 5 4.32 5 5 C6.65 5 8.3 5 10 5 C10.495 6.485 10.495 6.485 11 8 C10.67 8.66 10.34 9.32 10 10 C10.99 10.33 11.98 10.66 13 11 C14.6875 13.5625 14.6875 13.5625 16 16 C15.34 16 14.68 16 14 16 C14.04125 17.03125 14.0825 18.0625 14.125 19.125 C13.9973257 23.08290341 13.86222209 25.50833357 12 29 C6.27129805 33.70893302 -0.89533958 33.76317799 -8 34 C-8.33 34.99 -8.66 35.98 -9 37 C-12.11291394 39.12018512 -14.85458123 39.29736564 -18.5625 39.3125 C-19.51253906 39.32925781 -20.46257812 39.34601563 -21.44140625 39.36328125 C-24 39 -24 39 -25.83984375 37.63671875 C-27 36 -27 36 -27 33.5 C-24.41503946 24.45263812 -20.65379461 15.46048263 -12.75 10.0625 C-8.2574366 6.91830224 -4.09645834 3.64129631 0 0 Z " fill="#F44631" transform="translate(131,219)"/>
<path d="M0 0 C7.48310499 6.20028699 10.52052624 15.35493425 11.72265625 24.77734375 C12.19871509 30.71363024 12.21227515 36.67299247 12.25 42.625 C12.25942627 43.78845947 12.26885254 44.95191895 12.27856445 46.15063477 C12.27429443 47.24819092 12.27002441 48.34574707 12.265625 49.4765625 C12.26336914 50.46736816 12.26111328 51.45817383 12.25878906 52.47900391 C12 55 12 55 10 58 C9.01 57.67 8.02 57.34 7 57 C6.30341637 55.34561387 5.63903117 53.67745682 5 52 C4.52949219 51.59652344 4.05898438 51.19304687 3.57421875 50.77734375 C-1.43777801 45.11863773 -2.62622828 33.33116873 -2.34765625 26.015625 C-1.87374455 23.26800212 -0.49840613 21.31571856 1 19 C0.40854666 16.81701858 0.40854666 16.81701858 -1 15 C-3.45416273 11.3187559 -3.59384154 8.27738037 -3 4 C-1.5 1.5 -1.5 1.5 0 0 Z " fill="#F74B33" transform="translate(258,142)"/>
<path d="M0 0 C0.71800781 0.14824219 1.43601563 0.29648438 2.17578125 0.44921875 C5.60339464 1.23249421 8.05073664 2.03382442 11 4 C10.26951699 8.68803656 8.63363115 12.90885555 6.9375 17.3125 C6.65583984 18.05306641 6.37417969 18.79363281 6.08398438 19.55664062 C5.39281425 21.37242655 4.69688311 23.18639899 4 25 C-1.44020433 25.41376202 -1.44020433 25.41376202 -3.9765625 23.5390625 C-4.52054688 22.90742188 -5.06453125 22.27578125 -5.625 21.625 C-7.98713841 18.88773368 -7.98713841 18.88773368 -11.06640625 17.109375 C-13.8702822 15.50068657 -14.26910321 13.63030503 -15.3125 10.625 C-15.65925781 9.66851562 -16.00601563 8.71203125 -16.36328125 7.7265625 C-17.00653746 4.97200522 -16.96097914 3.6163432 -16 1 C-10.18579036 -0.76502793 -5.93769062 -1.22888375 0 0 Z " fill="#F7462E" transform="translate(216,127)"/>
<path d="M0 0 C0 4.29 0 8.58 0 13 C-0.33 13 -0.66 13 -1 13 C-1.33 9.7 -1.66 6.4 -2 3 C-2.556875 3.680625 -3.11375 4.36125 -3.6875 5.0625 C-4.450625 5.701875 -5.21375 6.34125 -6 7 C-8.75 6.75 -8.75 6.75 -11 6 C-11.2475 6.556875 -11.495 7.11375 -11.75 7.6875 C-13 10 -13 10 -15 12.4375 C-16.93700009 14.91928137 -17.98570439 17.04163782 -19 20 C-19.66 20 -20.32 20 -21 20 C-21.33 20.99 -21.66 21.98 -22 23 C-27.04506934 24.22045591 -30.48356154 23.62246887 -35.4375 22.1875 C-36.69433594 21.83042969 -37.95117188 21.47335938 -39.24609375 21.10546875 C-40.48488281 20.74066406 -41.72367188 20.37585938 -43 20 C-44.32384877 19.61980311 -45.64805134 19.2408353 -46.97265625 18.86328125 C-47.97167969 18.57839844 -48.97070312 18.29351562 -50 18 C-50 17.67 -50 17.34 -50 17 C-48.45892578 16.72349609 -48.45892578 16.72349609 -46.88671875 16.44140625 C-38.00352147 14.65251114 -32.29776385 12.37224124 -25.46484375 6.125 C-19.36038958 0.86220591 -7.81014846 -3.90507423 0 0 Z " fill="#7E7F81" transform="translate(254,104)"/>
<path d="M0 0 C4.6296487 0.06692002 7.79054742 0.74420644 11.75 3.3125 C11.75 3.9725 11.75 4.6325 11.75 5.3125 C12.41 5.3125 13.07 5.3125 13.75 5.3125 C14.08 7.2925 14.41 9.2725 14.75 11.3125 C17.4405528 10.09242056 17.4405528 10.09242056 19.75 8.3125 C21.74958364 8.27169217 23.75045254 8.26995644 25.75 8.3125 C25.853125 7.69375 25.95625 7.075 26.0625 6.4375 C26.75 4.3125 26.75 4.3125 29.75 2.3125 C33.40029401 0.91451506 35.79385203 0.3125 39.75 0.3125 C39.75 0.9725 39.75 1.6325 39.75 2.3125 C41.07 2.3125 42.39 2.3125 43.75 2.3125 C48.75 7.42613636 48.75 7.42613636 48.75 11.3125 C49.74 11.6425 50.73 11.9725 51.75 12.3125 C52.46883676 16.86513281 51.34289112 19.2760982 48.9375 23 C46.58994587 26.63898251 45.21570895 29.71764453 44.25 33.9375 C42.93172225 39.45242527 40.54072947 43.15103905 36.75 47.3125 C36.1621875 48.02792969 35.574375 48.74335938 34.96875 49.48046875 C32.02731759 51.90922192 29.96233607 51.97277667 26.1875 52.1875 C25.05183594 52.26742187 23.91617188 52.34734375 22.74609375 52.4296875 C19.75 52.3125 19.75 52.3125 16.75 50.3125 C24.67 49.8175 24.67 49.8175 32.75 49.3125 C33.41 47.6625 34.07 46.0125 34.75 44.3125 C35.41 44.3125 36.07 44.3125 36.75 44.3125 C36.75 43.3225 36.75 42.3325 36.75 41.3125 C38.125 39.625 38.125 39.625 39.75 38.3125 C40.41 38.3125 41.07 38.3125 41.75 38.3125 C42.08 33.0325 42.41 27.7525 42.75 22.3125 C44.07 21.9825 45.39 21.6525 46.75 21.3125 C46.75 20.6525 46.75 19.9925 46.75 19.3125 C47.74 19.3125 48.73 19.3125 49.75 19.3125 C49.75 17.0025 49.75 14.6925 49.75 12.3125 C49.09 12.3125 48.43 12.3125 47.75 12.3125 C47.316875 11.4875 46.88375 10.6625 46.4375 9.8125 C45.880625 8.9875 45.32375 8.1625 44.75 7.3125 C42.12305578 6.89469121 42.12305578 6.89469121 39.75 7.3125 C39.255 5.8275 39.255 5.8275 38.75 4.3125 C35.45 4.6425 32.15 4.9725 28.75 5.3125 C28.09 7.9525 27.43 10.5925 26.75 13.3125 C23.75 13.3125 23.75 13.3125 21.3125 12.625 C18.66492729 12.03042166 18.66492729 12.03042166 16.4375 13.75 C15.880625 14.265625 15.32375 14.78125 14.75 15.3125 C12.10534962 12.1870041 10.90585285 9.22461733 9.75 5.3125 C8.43 5.3125 7.11 5.3125 5.75 5.3125 C5.75 4.6525 5.75 3.9925 5.75 3.3125 C4.76 3.3125 3.77 3.3125 2.75 3.3125 C2.75 2.6525 2.75 1.9925 2.75 1.3125 C0.77 1.3125 -1.21 1.3125 -3.25 1.3125 C-3.58 2.3025 -3.91 3.2925 -4.25 4.3125 C-5.24 3.6525 -6.23 2.9925 -7.25 2.3125 C-4.67767294 -0.25982706 -3.57102308 0.01463534 0 0 Z " fill="#B24A47" transform="translate(185.25,185.6875)"/>
<path d="M0 0 C4.29258525 0.80769668 8.58389745 1.62196585 12.875 2.4375 C14.09832031 2.66759766 15.32164062 2.89769531 16.58203125 3.13476562 C18.33193359 3.46831055 18.33193359 3.46831055 20.1171875 3.80859375 C21.73536377 4.11494751 21.73536377 4.11494751 23.38623047 4.42749023 C26 5 26 5 28 6 C29.72983186 6.2786698 31.46728803 6.51073882 33.20703125 6.71875 C34.26349854 6.84596436 35.31996582 6.97317871 36.40844727 7.10424805 C38.09345337 7.30014526 38.09345337 7.30014526 39.8125 7.5 C40.94421631 7.6338208 42.07593262 7.7676416 43.24194336 7.90551758 C50.81891718 8.78671294 58.38298167 9.56084785 66 10 C66.495 11.98 66.495 11.98 67 14 C58.46934842 14.14772065 50.1586364 13.82324189 41.6875 12.8125 C40.58462646 12.68302979 39.48175293 12.55355957 38.34545898 12.42016602 C30.34664654 11.42251975 22.45586626 10.06747501 14.5625 8.4375 C13.54438232 8.22778564 12.52626465 8.01807129 11.47729492 7.80200195 C4.39732483 6.26488322 4.39732483 6.26488322 1 4 C1.66 4 2.32 4 3 4 C3 3.34 3 2.68 3 2 C2.01 2 1.02 2 0 2 C0 1.34 0 0.68 0 0 Z " fill="#A8A9AD" transform="translate(198,281)"/>
<path d="M0 0 C0.33 0.66 0.66 1.32 1 2 C3.02463255 2.65213292 3.02463255 2.65213292 5 3 C5 3.66 5 4.32 5 5 C6.65 5 8.3 5 10 5 C10.33 5.99 10.66 6.98 11 8 C10.67 8.66 10.34 9.32 10 10 C10.99 10.33 11.98 10.66 13 11 C14.6875 13.5625 14.6875 13.5625 16 16 C15.34 16 14.68 16 14 16 C14.04125 17.03125 14.0825 18.0625 14.125 19.125 C13.9973257 23.08290341 13.86222209 25.50833357 12 29 C6.27129805 33.70893302 -0.89533958 33.76317799 -8 34 C-8.33 34.99 -8.66 35.98 -9 37 C-9.66 36.67 -10.32 36.34 -11 36 C-10.3125 34.125 -10.3125 34.125 -9 32 C-6.5 30.875 -6.5 30.875 -4 30 C-3.34 29.34 -2.68 28.68 -2 28 C0.31 28.66 2.62 29.32 5 30 C4.5875 29.29875 4.175 28.5975 3.75 27.875 C3.5025 26.92625 3.255 25.9775 3 25 C3.66 24.13375 4.32 23.2675 5 22.375 C7.66695594 17.87451185 6.81629256 15.34757241 5.7734375 10.390625 C5.15100803 7.84760066 5.15100803 7.84760066 3 6 C3 5.01 3 4.02 3 3 C1.8553125 3.4640625 1.8553125 3.4640625 0.6875 3.9375 C-1.18789677 4.67893593 -3.08684652 5.36228217 -5 6 C-5 6.66 -5 7.32 -5 8 C-6.96147874 9.38938077 -8.96166576 10.7260411 -11 12 C-11.66 11.67 -12.32 11.34 -13 11 C-8.71 7.37 -4.42 3.74 0 0 Z " fill="#DA382C" transform="translate(131,219)"/>
<path d="M0 0 C7.48310499 6.20028699 10.52052624 15.35493425 11.72265625 24.77734375 C12.19871509 30.71363024 12.21227515 36.67299247 12.25 42.625 C12.25942627 43.78845947 12.26885254 44.95191895 12.27856445 46.15063477 C12.27429443 47.24819092 12.27002441 48.34574707 12.265625 49.4765625 C12.26336914 50.46736816 12.26111328 51.45817383 12.25878906 52.47900391 C12 55 12 55 10 58 C9.01 57.67 8.02 57.34 7 57 C7.00523682 56.37134033 7.01047363 55.74268066 7.01586914 55.0949707 C7.14808232 38.02198595 7.14808232 38.02198595 6 21 C5.9278125 20.12988281 5.855625 19.25976562 5.78125 18.36328125 C5.43047134 14.47339644 5.01674293 11.36123822 3 8 C2.34 7.67 1.68 7.34 1 7 C1 6.01 1 5.02 1 4 C0.34 4 -0.32 4 -1 4 C-0.95875 4.94875 -0.9175 5.8975 -0.875 6.875 C-1 10 -1 10 -3 12 C-3.36923077 4.61538462 -3.36923077 4.61538462 -1.5 1.5 C-1.005 1.005 -0.51 0.51 0 0 Z " fill="#D13E2F" transform="translate(258,142)"/>
<path d="M0 0 C4.6296487 0.06692002 7.79054742 0.74420644 11.75 3.3125 C11.75 3.9725 11.75 4.6325 11.75 5.3125 C12.41 5.3125 13.07 5.3125 13.75 5.3125 C14.08 7.2925 14.41 9.2725 14.75 11.3125 C17.4405528 10.09242056 17.4405528 10.09242056 19.75 8.3125 C21.74958364 8.27169217 23.75045254 8.26995644 25.75 8.3125 C25.853125 7.69375 25.95625 7.075 26.0625 6.4375 C26.75 4.3125 26.75 4.3125 29.75 2.3125 C32.07108669 1.60437186 34.40377147 0.93225848 36.75 0.3125 C37.1625 0.76625 37.575 1.22 38 1.6875 C39.81408095 3.37200374 41.50285627 4.30515971 43.75 5.3125 C41.77 6.3025 41.77 6.3025 39.75 7.3125 C39.255 5.8275 39.255 5.8275 38.75 4.3125 C35.45 4.6425 32.15 4.9725 28.75 5.3125 C28.09 7.9525 27.43 10.5925 26.75 13.3125 C23.75 13.3125 23.75 13.3125 21.3125 12.625 C18.66492729 12.03042166 18.66492729 12.03042166 16.4375 13.75 C15.880625 14.265625 15.32375 14.78125 14.75 15.3125 C12.10534962 12.1870041 10.90585285 9.22461733 9.75 5.3125 C8.43 5.3125 7.11 5.3125 5.75 5.3125 C5.75 4.6525 5.75 3.9925 5.75 3.3125 C4.76 3.3125 3.77 3.3125 2.75 3.3125 C2.75 2.6525 2.75 1.9925 2.75 1.3125 C0.77 1.3125 -1.21 1.3125 -3.25 1.3125 C-3.58 2.3025 -3.91 3.2925 -4.25 4.3125 C-5.24 3.6525 -6.23 2.9925 -7.25 2.3125 C-4.67767294 -0.25982706 -3.57102308 0.01463534 0 0 Z " fill="#DD4B3D" transform="translate(185.25,185.6875)"/>
<path d="M0 0 C0.71800781 0.14824219 1.43601563 0.29648438 2.17578125 0.44921875 C5.60339464 1.23249421 8.05073664 2.03382442 11 4 C10.26951699 8.68803656 8.63363115 12.90885555 6.9375 17.3125 C6.65583984 18.05306641 6.37417969 18.79363281 6.08398438 19.55664062 C5.39281425 21.37242655 4.69688311 23.18639899 4 25 C-1.52954048 25.36761488 -1.52954048 25.36761488 -3.6796875 23.6875 C-4.78645833 22.125 -5.89322917 20.5625 -7 19 C-4.53199953 20.15173355 -2.95216435 21.04783565 -1 23 C1.06874034 23.6425235 1.06874034 23.6425235 3 24 C4.55810358 15.51017403 4.55810358 15.51017403 6 7 C6.66 7 7.32 7 8 7 C8 6.34 8 5.68 8 5 C6.68 5 5.36 5 4 5 C3.87625 5.515625 3.7525 6.03125 3.625 6.5625 C2.81358372 9.72702351 1.9054087 12.86124985 1 16 C0.34 15.67 -0.32 15.34 -1 15 C-0.67 10.71 -0.34 6.42 0 2 C-7.58584848 1.70964422 -7.58584848 1.70964422 -15 3 C-15.66 3.66 -16.32 4.32 -17 5 C-16.67 3.68 -16.34 2.36 -16 1 C-10.18579036 -0.76502793 -5.93769062 -1.22888375 0 0 Z " fill="#C54C45" transform="translate(216,127)"/>
<path d="M0 0 C0.66 0.33 1.32 0.66 2 1 C1.56171875 1.37382812 1.1234375 1.74765625 0.671875 2.1328125 C-1.46669765 4.52121841 -2.50004027 6.92656558 -3.75 9.875 C-4.19859375 10.90367187 -4.6471875 11.93234375 -5.109375 12.9921875 C-6.06038903 16.20394541 -6.0173558 17.84619701 -5 21 C-3.95637611 22.26572962 -3.95637611 22.26572962 -1.63671875 22.1328125 C-0.66347656 22.13023437 0.30976562 22.12765625 1.3125 22.125 C2.76076172 22.12886719 2.76076172 22.12886719 4.23828125 22.1328125 C6.66143705 22.01628167 8.68644969 21.69241648 11 21 C9.34388664 23.28429428 8.37566381 24.56954711 6 26 C3.08089438 26.28181567 0.34908439 26.19012378 -2.57421875 25.98046875 C-5.18549891 25.71790508 -5.18549891 25.71790508 -7 28 C-9.625 27.625 -9.625 27.625 -12 27 C-12 25.02 -12 23.04 -12 21 C-11.01 21.33 -10.02 21.66 -9 22 C-8.87625 20.741875 -8.7525 19.48375 -8.625 18.1875 C-8.30131941 14.89674737 -7.93395001 13.90092502 -6 11 C-6.99 11 -7.98 11 -9 11 C-8.46324097 7.14896699 -6.88399077 5.68202413 -3.9375 3.25 C-3.20402344 2.63640625 -2.47054687 2.0228125 -1.71484375 1.390625 C-1.14894531 0.93171875 -0.58304688 0.4728125 0 0 Z " fill="#C5AFAB" transform="translate(111,235)"/>
<path d="M0 0 C7.40256709 -0.48541424 7.40256709 -0.48541424 10 1.625 C11.28292178 4.67193922 11.40995912 6.72032701 11 10 C9.55934428 12.66521308 8.77422361 13.74951589 5.875 14.6875 C5.25625 14.790625 4.6375 14.89375 4 15 C3.67 15.33 3.34 15.66 3 16 C0.19048514 16.29573841 -1.41628976 16.38243085 -3.8125 14.8125 C-5.36678206 12.44017475 -5.22537188 10.77958655 -5 8 C-4.34 9.32 -3.68 10.64 -3 12 C-3 11.67 -3 11.34 -3 11 C-2.67449498 9.33178677 -2.34153937 7.66500443 -2 6 C0.3125 5.375 0.3125 5.375 3 5 C3.99 5.66 4.98 6.32 6 7 C6 8.32 6 9.64 6 11 C6.99 11 7.98 11 9 11 C8.53045985 7.55892288 8.53045985 7.55892288 7 4 C4.70531217 2.4631421 2.67327763 1.8415874 0 1 C0 0.67 0 0.34 0 0 Z " fill="#8A8B8F" transform="translate(138,267)"/>
<path d="M0 0 C0.99128906 0.00257813 1.98257813 0.00515625 3.00390625 0.0078125 C3.99261719 0.00523437 4.98132813 0.00265625 6 0 C8.56640625 0.1328125 8.56640625 0.1328125 10.56640625 1.1328125 C10.56640625 4.4328125 10.56640625 7.7328125 10.56640625 11.1328125 C11.88640625 11.4628125 13.20640625 11.7928125 14.56640625 12.1328125 C14.56640625 15.1028125 14.56640625 18.0728125 14.56640625 21.1328125 C13.90640625 21.1328125 13.24640625 21.1328125 12.56640625 21.1328125 C12.89640625 18.4928125 13.22640625 15.8528125 13.56640625 13.1328125 C11.91640625 13.1328125 10.26640625 13.1328125 8.56640625 13.1328125 C8.56640625 13.7928125 8.56640625 14.4528125 8.56640625 15.1328125 C7.90640625 15.1328125 7.24640625 15.1328125 6.56640625 15.1328125 C7.22640625 11.1728125 7.88640625 7.2128125 8.56640625 3.1328125 C5.59640625 2.6378125 5.59640625 2.6378125 2.56640625 2.1328125 C2.23640625 3.7828125 1.90640625 5.4328125 1.56640625 7.1328125 C0.92316406 6.97941406 0.27992188 6.82601562 -0.3828125 6.66796875 C-4.33126912 5.97534576 -8.24678245 5.77480369 -12.24609375 5.5703125 C-13.03435547 5.52712891 -13.82261719 5.48394531 -14.63476562 5.43945312 C-16.5675359 5.33402929 -18.50054401 5.23298156 -20.43359375 5.1328125 C-20.10359375 4.4728125 -19.77359375 3.8128125 -19.43359375 3.1328125 C-18.58087891 3.16761719 -18.58087891 3.16761719 -17.7109375 3.203125 C-12.51138678 3.32465039 -8.34307204 2.87158606 -3.43359375 1.1328125 C-2.43359375 0.1328125 -2.43359375 0.1328125 0 0 Z " fill="#DAA5A0" transform="translate(167.43359375,206.8671875)"/>
<path d="M0 0 C4.06498881 1.37184347 6.67396561 3.22068459 9.8125 6.125 C10.99779297 7.21167969 10.99779297 7.21167969 12.20703125 8.3203125 C12.79871094 8.87460938 13.39039063 9.42890625 14 10 C13.23382798 13.81489819 11.8393733 15.33808753 9 18 C8.67 18.66 8.34 19.32 8 20 C6.02 19.34 4.04 18.68 2 18 C2 16 2 16 4 14 C4.38218767 12.34385343 4.71395102 10.67542976 5 9 C5.33 8.01 5.66 7.02 6 6 C5.195625 5.7525 4.39125 5.505 3.5625 5.25 C1 4 1 4 0.1875 1.875 C0.125625 1.25625 0.06375 0.6375 0 0 Z " fill="#BEBEC0" transform="translate(203,143)"/>
<path d="M0 0 C0.66 0 1.32 0 2 0 C7 5.47619048 7 5.47619048 7 8 C8.32 8.66 9.64 9.32 11 10 C11 10.66 11 11.32 11 12 C11.89138672 12.39638672 11.89138672 12.39638672 12.80078125 12.80078125 C15.08102587 14.04418284 16.43065519 15.29184276 18.1875 17.1875 C22.70553263 21.84214701 27.76580275 26.92193425 34 29 C34 29.66 34 30.32 34 31 C35.32 31.33 36.64 31.66 38 32 C38 32.66 38 33.32 38 34 C28.48317255 32.40648471 19.73443556 22.41328473 13 16 C12.43861328 15.46584473 11.87722656 14.93168945 11.29882812 14.38134766 C9.47986736 12.64021648 7.6752941 10.88541262 5.875 9.125 C5.00319092 8.28545776 5.00319092 8.28545776 4.11376953 7.42895508 C2.68331762 6.0099175 1.33421402 4.50987856 0 3 C0 2.01 0 1.02 0 0 Z " fill="#1D1D1D" transform="translate(43,288)"/>
<path d="M0 0 C1.57369802 0.0960268 3.14665258 0.20481895 4.71875 0.32421875 C5.53230957 0.38125977 6.34586914 0.43830078 7.18408203 0.49707031 C8.79914353 0.61236284 10.41390853 0.73189807 12.02832031 0.85595703 C13.84735263 0.98530864 15.66980839 1.06539752 17.4921875 1.1328125 C23.62994792 1.43693576 23.62994792 1.43693576 26.84375 4.57421875 C27.524375 5.78078125 27.524375 5.78078125 28.21875 7.01171875 C26.89875 7.34171875 25.57875 7.67171875 24.21875 8.01171875 C23.88875 7.02171875 23.55875 6.03171875 23.21875 5.01171875 C13.64875 4.02171875 4.07875 3.03171875 -5.78125 2.01171875 C-3.78125 0.01171875 -3.78125 0.01171875 0 0 Z M12.21875 8.01171875 C16.17875 8.01171875 20.13875 8.01171875 24.21875 8.01171875 C24.54875 8.67171875 24.87875 9.33171875 25.21875 10.01171875 C21.25875 10.01171875 17.29875 10.01171875 13.21875 10.01171875 C12.88875 9.35171875 12.55875 8.69171875 12.21875 8.01171875 Z " fill="#0B0B0F" transform="translate(240.78125,286.98828125)"/>
<path d="M0 0 C-0.33 0.99 -0.66 1.98 -1 3 C-2.61068359 2.54947266 -2.61068359 2.54947266 -4.25390625 2.08984375 C-5.68991709 1.70503039 -7.12612583 1.32095496 -8.5625 0.9375 C-9.26697266 0.73833984 -9.97144531 0.53917969 -10.69726562 0.33398438 C-15.47256158 -0.92035604 -19.07849223 -1.02328379 -24 0 C-25.4540625 0.2784375 -25.4540625 0.2784375 -26.9375 0.5625 C-27.618125 0.706875 -28.29875 0.85125 -29 1 C-28.68817931 2.41681634 -28.37551263 3.83344651 -28.0625 5.25 C-27.80146484 6.43335938 -27.80146484 6.43335938 -27.53515625 7.640625 C-27.052444 9.76878703 -26.53836822 11.88532842 -26 14 C-26.66 14 -27.32 14 -28 14 C-28 13.34 -28 12.68 -28 12 C-28.99 11.67 -29.98 11.34 -31 11 C-31.19477739 9.37585622 -31.38059458 7.75063577 -31.5625 6.125 C-31.66691406 5.22007812 -31.77132812 4.31515625 -31.87890625 3.3828125 C-32 1 -32 1 -31 -1 C-20.835504 -5.19322503 -10.18428119 -3.08280944 0 0 Z " fill="#DBAFAA" transform="translate(229,128)"/>
<path d="M0 0 C-0.3125 1.9375 -0.3125 1.9375 -1 4 C-1.99 4.33 -2.98 4.66 -4 5 C-2.35 5.33 -0.7 5.66 1 6 C0.375 8.4375 0.375 8.4375 -1 11 C-4.0625 11.875 -4.0625 11.875 -7 12 C-7.33 11.67 -7.66 11.34 -8 11 C-9.51469448 10.76807135 -11.03754562 10.58784762 -12.5625 10.4375 C-13.38878906 10.35371094 -14.21507812 10.26992187 -15.06640625 10.18359375 C-15.70449219 10.12300781 -16.34257812 10.06242188 -17 10 C-14.38772848 7.04185281 -11.33429693 5.28123892 -7.9375 3.3125 C-6.87402344 2.68988281 -5.81054688 2.06726563 -4.71484375 1.42578125 C-2 0 -2 0 0 0 Z " fill="#B3B5B9" transform="translate(199,176)"/>
<path d="M0 0 C0.66 0.66 1.32 1.32 2 2 C1.67 2.99 1.34 3.98 1 5 C-1.31 5 -3.62 5 -6 5 C-6 5.66 -6 6.32 -6 7 C-7.32 7 -8.64 7 -10 7 C-10 7.66 -10 8.32 -10 9 C-12.31 9 -14.62 9 -17 9 C-14.53846154 4.2 -14.53846154 4.2 -11.8125 3.1875 C-11.214375 3.125625 -10.61625 3.06375 -10 3 C-10 2.34 -10 1.68 -10 1 C-6.42894485 -1.33492068 -4.06144397 -1.05950712 0 0 Z " fill="#FA3B28" transform="translate(169,200)"/>
<path d="M0 0 C0.33 0 0.66 0 1 0 C1.82653734 6.13999168 2.13149475 12.24892032 2.1875 18.4375 C2.20039063 19.13552734 2.21328125 19.83355469 2.2265625 20.55273438 C2.23379324 24.26572137 2.1149862 25.82752071 0 29 C-3.85790584 25.77976455 -4.77502228 23.12488859 -5.75 18.25 C-5.99234375 17.07953125 -6.2346875 15.9090625 -6.484375 14.703125 C-6.65453125 13.81109375 -6.8246875 12.9190625 -7 12 C-5.68 12.33 -4.36 12.66 -3 13 C-3.020625 13.94875 -3.04125 14.8975 -3.0625 15.875 C-3.22551826 18.90666283 -3.22551826 18.90666283 -2 21 C0.17990127 19.234465 0.17990127 19.234465 0.22705078 17.02880859 C0.21657715 16.24328613 0.20610352 15.45776367 0.1953125 14.6484375 C0.18886719 13.79765625 0.18242187 12.946875 0.17578125 12.0703125 C0.15902344 11.18085938 0.14226562 10.29140625 0.125 9.375 C0.11597656 8.4778125 0.10695313 7.580625 0.09765625 6.65625 C0.0740497 4.43723414 0.0411231 2.21874923 0 0 Z " fill="#EC4832" transform="translate(264,166)"/>
<path d="M0 0 C0 0.66 0 1.32 0 2 C-1.32 2.33 -2.64 2.66 -4 3 C-4.33 4.32 -4.66 5.64 -5 7 C-3.35 7.33 -1.7 7.66 0 8 C0 7.34 0 6.68 0 6 C1.32 6 2.64 6 4 6 C4 5.34 4 4.68 4 4 C8.51617599 3.92345464 12.59085217 3.89771304 17 5 C17 5.33 17 5.66 17 6 C13.37 6 9.74 6 6 6 C5.67 6.99 5.34 7.98 5 9 C4.34 9 3.68 9 3 9 C0.20860937 9.28394427 -2.58147636 9.57802874 -5.37109375 9.87890625 C-8 10 -8 10 -11 9 C-11 8.01 -11 7.02 -11 6 C-9.1015625 4.39453125 -9.1015625 4.39453125 -6.625 2.8125 C-5.81289062 2.28269531 -5.00078125 1.75289062 -4.1640625 1.20703125 C-2 0 -2 0 0 0 Z " fill="#D74B3F" transform="translate(159,201)"/>
<path d="M0 0 C3.95509131 1.60265549 6.67288145 4.32988829 9.625 7.3125 C10.14481445 7.83360352 10.66462891 8.35470703 11.20019531 8.89160156 C16.68344642 14.5083463 21.38253936 20.66631505 26 27 C25.01 27.33 24.02 27.66 23 28 C22.27554687 27.07058594 21.55109375 26.14117187 20.8046875 25.18359375 C13.46622115 14.31160197 13.46622115 14.31160197 4 6 C4 5.34 4 4.68 4 4 C3.34 4 2.68 4 2 4 C1.34 2.68 0.68 1.36 0 0 Z " fill="#161616" transform="translate(296,48)"/>
<path d="M0 0 C0.66 0.33 1.32 0.66 2 1 C1.3125 3.875 1.3125 3.875 0 7 C-2.5625 8.1875 -2.5625 8.1875 -5 9 C-5.33 9.99 -5.66 10.98 -6 12 C-12.62503993 14.20834664 -18.89805602 15.32940456 -25.5 12.5 C-26.325 12.005 -27.15 11.51 -28 11 C-24.98968256 10.06576355 -24.13349732 9.95550089 -21 11 C-18.45207498 11.01420248 -15.97596301 10.95419283 -13.4375 10.8125 C-12.40979492 10.78446289 -12.40979492 10.78446289 -11.36132812 10.75585938 C-9.12627422 10.67497271 -9.12627422 10.67497271 -6 10 C-4.56083664 8.21023039 -4.56083664 8.21023039 -4 6 C-2.68457624 3.98817543 -1.3540932 1.98600337 0 0 Z " fill="#DAA9A7" transform="translate(226,226)"/>
<path d="M0 0 C-0.99 0.495 -0.99 0.495 -2 1 C-2 1.66 -2 2.32 -2 3 C-2.65097656 3.1134375 -3.30195313 3.226875 -3.97265625 3.34375 C-8.61918955 4.35099851 -13.12927355 5.7944286 -17.67382812 7.18359375 C-21.76835687 8.41377216 -25.75258971 9.40765118 -30 10 C-29.67 9.01 -29.34 8.02 -29 7 C-26.76269531 6.0168457 -26.76269531 6.0168457 -23.828125 5.17578125 C-22.77109375 4.86962891 -21.7140625 4.56347656 -20.625 4.24804688 C-18.954375 3.78495117 -18.954375 3.78495117 -17.25 3.3125 C-16.15171875 2.99216797 -15.0534375 2.67183594 -13.921875 2.34179688 C-4.96749248 -0.20650738 -4.96749248 -0.20650738 0 0 Z " fill="#0B0B0B" transform="translate(146,3)"/>
<path d="M0 0 C2.05241161 3.39503936 2.25716403 6.03739852 2.265625 9.97265625 C2.26820313 11.11927734 2.27078125 12.26589844 2.2734375 13.44726562 C2.26570313 14.64029297 2.25796875 15.83332031 2.25 17.0625 C2.25773437 18.25939453 2.26546875 19.45628906 2.2734375 20.68945312 C2.27085937 21.83478516 2.26828125 22.98011719 2.265625 24.16015625 C2.26336914 25.20824463 2.26111328 26.25633301 2.25878906 27.33618164 C2 30 2 30 0 33 C-0.99 32.67 -1.98 32.34 -3 32 C-2.51781006 31.21157715 -2.51781006 31.21157715 -2.02587891 30.40722656 C-0.71894784 27.34051063 -0.676765 24.81471656 -0.5859375 21.484375 C-0.54726563 20.23398438 -0.50859375 18.98359375 -0.46875 17.6953125 C-0.4378125 16.39335937 -0.406875 15.09140625 -0.375 13.75 C-0.33632813 12.43257812 -0.29765625 11.11515625 -0.2578125 9.7578125 C-0.16353818 6.50534839 -0.0779325 3.25289004 0 0 Z " fill="#A34746" transform="translate(268,167)"/>
<path d="M0 0 C4.96026885 4.27134262 8.47937519 9.47965442 9.24609375 16.13671875 C9.25 18.0625 9.25 18.0625 9 21 C8.34 20.67 7.68 20.34 7 20 C6.66666667 17.66666667 6.33333333 15.33333333 6 13 C5.34 12.67 4.68 12.34 4 12 C2.82513503 9.37383124 1.90985138 6.72955415 1 4 C0.34 4 -0.32 4 -1 4 C-0.95875 4.94875 -0.9175 5.8975 -0.875 6.875 C-1 10 -1 10 -3 12 C-3.36923077 4.61538462 -3.36923077 4.61538462 -1.5 1.5 C-1.005 1.005 -0.51 0.51 0 0 Z " fill="#D15043" transform="translate(258,142)"/>
<path d="M0 0 C0.66 0.33 1.32 0.66 2 1 C1.56171875 1.37382812 1.1234375 1.74765625 0.671875 2.1328125 C-1.46669765 4.52121841 -2.50004027 6.92656558 -3.75 9.875 C-4.19859375 10.90367187 -4.6471875 11.93234375 -5.109375 12.9921875 C-6.27496143 16.92859782 -5.8100645 19.37987099 -4 23 C-5.32 23 -6.64 23 -8 23 C-8.05422947 21.5629191 -8.09289723 20.12524538 -8.125 18.6875 C-8.14820312 17.88699219 -8.17140625 17.08648437 -8.1953125 16.26171875 C-8 14 -8 14 -6 11 C-6.99 11 -7.98 11 -9 11 C-8.46324097 7.14896699 -6.88399077 5.68202413 -3.9375 3.25 C-3.20402344 2.63640625 -2.47054687 2.0228125 -1.71484375 1.390625 C-1.14894531 0.93171875 -0.58304688 0.4728125 0 0 Z " fill="#BDB9B9" transform="translate(111,235)"/>
<path d="M0 0 C8.55448573 5.06876112 15.80606588 10.146683 22 18 C22.804375 18.99 23.60875 19.98 24.4375 21 C25.2109375 21.99 25.2109375 21.99 26 23 C21.86539356 21.35214961 19.02107516 18.34778807 15.875 15.3125 C10.58951683 10.308759 5.14162178 5.93729252 -1 2 C-0.67 1.34 -0.34 0.68 0 0 Z " fill="#111113" transform="translate(144,76)"/>
<path d="M0 0 C0.33 0.99 0.66 1.98 1 3 C-0.56089026 4.41844009 -2.1237889 5.83467025 -3.6875 7.25 C-4.55761719 8.03890625 -5.42773438 8.8278125 -6.32421875 9.640625 C-8.07137008 11.18117887 -9.86416591 12.67185153 -11.703125 14.1015625 C-14.20743539 15.98306281 -14.20743539 15.98306281 -16.0625 19.125 C-17.94841287 21.92345135 -18.89451008 22.89089646 -22 24 C-22 21 -22 21 -20.51879883 19.16235352 C-19.83841553 18.49131592 -19.15803223 17.82027832 -18.45703125 17.12890625 C-17.71259766 16.38962891 -16.96816406 15.65035156 -16.20117188 14.88867188 C-15.41291016 14.12103516 -14.62464844 13.35339844 -13.8125 12.5625 C-13.04357422 11.79873047 -12.27464844 11.03496094 -11.48242188 10.24804688 C-7.80251957 6.618684 -4.13982754 3.11109284 0 0 Z " fill="#131313" transform="translate(67,38)"/>
<path d="M0 0 C1.5 1.5625 1.5 1.5625 1.5 3.5625 C0.67535627 7.27339678 -0.44680199 10.91141356 -1.5 14.5625 C-2.16 14.2325 -2.82 13.9025 -3.5 13.5625 C-3.17 9.2725 -2.84 4.9825 -2.5 0.5625 C-10.08584848 0.27214422 -10.08584848 0.27214422 -17.5 1.5625 C-18.16 2.2225 -18.82 2.8825 -19.5 3.5625 C-19.17 2.2425 -18.84 0.9225 -18.5 -0.4375 C-11.97452016 -2.41844924 -6.2503741 -3.59396511 0 0 Z " fill="#E0523E" transform="translate(218.5,128.4375)"/>
<path d="M0 0 C0.33 0.66 0.66 1.32 1 2 C1.99 2 2.98 2 4 2 C3.34 5.96 2.68 9.92 2 14 C0.68 13.34 -0.64 12.68 -2 12 C-2.66 13.32 -3.32 14.64 -4 16 C-4.66 15.67 -5.32 15.34 -6 15 C-4.02 10.05 -2.04 5.1 0 0 Z " fill="#BBB5B3" transform="translate(101,244)"/>
<path d="M0 0 C0.33 0 0.66 0 1 0 C1.10957031 0.88300781 1.21914063 1.76601562 1.33203125 2.67578125 C2.70819185 17.15300219 2.70819185 17.15300219 10 29 C10.75 31.75 10.75 31.75 11 34 C10.34 34 9.68 34 9 34 C8.401875 32.9275 7.80375 31.855 7.1875 30.75 C5.99490946 28.63547777 4.88378933 26.86226883 3.3125 25 C1.4435984 22.15214995 1.37810842 19.33995769 1 16 C0.67 15.67 0.34 15.34 0 15 C-0.07313567 12.46950598 -0.09247527 9.96695163 -0.0625 7.4375 C-0.05798828 6.72658203 -0.05347656 6.01566406 -0.04882812 5.28320312 C-0.03700864 3.52209987 -0.01907263 1.76103964 0 0 Z " fill="#E8AAA2" transform="translate(255,166)"/>
<path d="M0 0 C0.33 0.66 0.66 1.32 1 2 C1.66 2 2.32 2 3 2 C3 1.34 3 0.68 3 0 C4.98 0 6.96 0 9 0 C8.01 0.495 8.01 0.495 7 1 C6.34444881 3.52733235 6.34444881 3.52733235 6 6 C5.35675781 5.84660156 4.71351563 5.69320312 4.05078125 5.53515625 C0.10232463 4.84253326 -3.8131887 4.64199119 -7.8125 4.4375 C-8.60076172 4.39431641 -9.38902344 4.35113281 -10.20117188 4.30664062 C-12.13394215 4.20121679 -14.06695026 4.10016906 -16 4 C-15.67 3.34 -15.34 2.68 -15 2 C-14.41992188 2.02320313 -13.83984375 2.04640625 -13.2421875 2.0703125 C-8.38588834 2.18250423 -4.57067605 1.87514915 0 0 Z " fill="#CEB2AD" transform="translate(163,208)"/>
<path d="M0 0 C3 2 3 2 3.52416992 4.52197266 C3.59224854 5.5588623 3.66032715 6.59575195 3.73046875 7.6640625 C3.81103516 8.78554687 3.89160156 9.90703125 3.97460938 11.0625 C4.04486328 12.238125 4.11511719 13.41375 4.1875 14.625 C4.26935547 15.80835938 4.35121094 16.99171875 4.43554688 18.2109375 C4.63633054 21.1400168 4.82390805 24.06934939 5 27 C4.34 27 3.68 27 3 27 C1.2729614 17.99592496 0.47449901 9.14034937 0 0 Z " fill="#131313" transform="translate(1,181)"/>
<path d="M0 0 C3.63 0 7.26 0 11 0 C11.33 1.32 11.66 2.64 12 4 C4.90565767 4.09733092 -1.98194143 4.10087193 -9 3 C-9 2.67 -9 2.34 -9 2 C-4.545 1.505 -4.545 1.505 0 1 C0 0.67 0 0.34 0 0 Z " fill="#949498" transform="translate(253,291)"/>
<path d="M0 0 C-3.6075416 1.85742989 -7.31452273 3.38246664 -11.07421875 4.90234375 C-13.34106276 5.91050672 -13.34106276 5.91050672 -14 9 C-16.31074405 9.74118205 -18.64811553 10.40206327 -21 11 C-22.35350594 11.62469505 -23.69934483 12.2716331 -25 13 C-25.33 12.34 -25.66 11.68 -26 11 C-25.24074219 10.61328125 -24.48148438 10.2265625 -23.69921875 9.828125 C-22.70535156 9.30734375 -21.71148437 8.7865625 -20.6875 8.25 C-19.70136719 7.73953125 -18.71523437 7.2290625 -17.69921875 6.703125 C-15.02506555 5.0158156 -13.74887274 3.57958729 -12 1 C-8.33352209 -0.62954574 -3.93044581 -0.06550743 0 0 Z " fill="#E4A099" transform="translate(225,185)"/>
<path d="M0 0 C4.6296487 0.06692002 7.79054742 0.74420644 11.75 3.3125 C11.75 3.9725 11.75 4.6325 11.75 5.3125 C12.41 5.3125 13.07 5.3125 13.75 5.3125 C14.08 7.6225 14.41 9.9325 14.75 12.3125 C13.76 11.9825 12.77 11.6525 11.75 11.3125 C10.5625 8.25 10.5625 8.25 9.75 5.3125 C8.43 5.3125 7.11 5.3125 5.75 5.3125 C5.75 4.6525 5.75 3.9925 5.75 3.3125 C4.76 3.3125 3.77 3.3125 2.75 3.3125 C2.75 2.6525 2.75 1.9925 2.75 1.3125 C0.77 1.3125 -1.21 1.3125 -3.25 1.3125 C-3.58 2.3025 -3.91 3.2925 -4.25 4.3125 C-5.24 3.6525 -6.23 2.9925 -7.25 2.3125 C-4.67767294 -0.25982706 -3.57102308 0.01463534 0 0 Z " fill="#E15241" transform="translate(185.25,185.6875)"/>
<path d="M0 0 C0.66 0 1.32 0 2 0 C1.79503906 0.57105469 1.59007813 1.14210937 1.37890625 1.73046875 C-0.68833525 7.95197547 -1.40639086 13.66508031 -1.59375 20.21484375 C-2.03835199 23.26293241 -2.59525931 24.16446655 -5 26 C-5 7.90322581 -5 7.90322581 0 0 Z " fill="#0B0B0D" transform="translate(118,133)"/>
<path d="M0 0 C0.99 0.33 1.98 0.66 3 1 C2.34 4.63 1.68 8.26 1 12 C0.34 12 -0.32 12 -1 12 C-1.33 12.99 -1.66 13.98 -2 15 C-2.66 15 -3.32 15 -4 15 C-4 15.99 -4 16.98 -4 18 C-4.66 18 -5.32 18 -6 18 C-6.33 18.66 -6.66 19.32 -7 20 C-7 19.01 -7 18.02 -7 17 C-7.99 16.67 -8.98 16.34 -10 16 C-10 15.34 -10 14.68 -10 14 C-7.69 14 -5.38 14 -3 14 C-2.67 11.36 -2.34 8.72 -2 6 C-1.34 6 -0.68 6 0 6 C0 4.02 0 2.04 0 0 Z " fill="#DB3830" transform="translate(226,212)"/>
<path d="M0 0 C0.99 0.33 1.98 0.66 3 1 C2.67 1.66 2.34 2.32 2 3 C0.74435464 6.76693607 0.31825943 10.06810087 1 14 C2.83656989 16.96731398 2.83656989 16.96731398 5 19 C3.92598892 21.91517292 3.22189824 23.77810176 1 26 C1 22.7 1 19.4 1 16 C0.34 16 -0.32 16 -1 16 C-2.59712091 11.20863728 -2.58050244 6.74150731 -1 2 C-0.67 1.34 -0.34 0.68 0 0 Z " fill="#E1ACA4" transform="translate(255,140)"/>
<path d="M0 0 C2.00720923 0.28674418 4.0085944 0.61866701 6 1 C6.04254356 2.99954746 6.04080783 5.00041636 6 7 C5 8 5 8 2.5625 8.1875 C0 8 0 8 -2 6 C-1.44444444 1.44444444 -1.44444444 1.44444444 0 0 Z " fill="#0E0E12" transform="translate(137,272)"/>
<path d="M0 0 C4.455 0.99 4.455 0.99 9 2 C9 2.66 9 3.32 9 4 C-0.41002278 6.29612756 -0.41002278 6.29612756 -5 6 C-5.33 6.99 -5.66 7.98 -6 9 C-6.66 8.67 -7.32 8.34 -8 8 C-7.3125 6.125 -7.3125 6.125 -6 4 C-4.35636866 3.27840576 -2.68949614 2.60648579 -1 2 C-0.67 1.34 -0.34 0.68 0 0 Z " fill="#E05442" transform="translate(128,247)"/>
<path d="M0 0 C2.27024968 -0.08097324 4.54132075 -0.13917704 6.8125 -0.1875 C8.07707031 -0.22230469 9.34164062 -0.25710938 10.64453125 -0.29296875 C14 0 14 0 17 3 C11.06 3 5.12 3 -1 3 C-0.67 2.01 -0.34 1.02 0 0 Z " fill="#B2B3B7" transform="translate(237,290)"/>
<path d="M0 0 C0 0.99 0 1.98 0 3 C-1.74468372 3.70088156 -3.49601161 4.38524009 -5.25 5.0625 C-6.22453125 5.44535156 -7.1990625 5.82820313 -8.203125 6.22265625 C-11.22283999 7.06193458 -12.10326069 6.90793322 -15 6 C-17.4138176 5.77882441 -19.83114597 5.59427758 -22.25 5.4375 C-23.51328125 5.35371094 -24.7765625 5.26992188 -26.078125 5.18359375 C-27.04234375 5.12300781 -28.0065625 5.06242187 -29 5 C-29 4.67 -29 4.34 -29 4 C-28.14619751 3.97812622 -28.14619751 3.97812622 -27.27514648 3.95581055 C-24.66196172 3.88070835 -22.04996901 3.78425811 -19.4375 3.6875 C-18.09461914 3.65366211 -18.09461914 3.65366211 -16.72460938 3.61914062 C-10.88377573 3.38379568 -5.33350595 0 0 0 Z " fill="#1C1C1E" transform="translate(147,296)"/>
<path d="M0 0 C0.66 0 1.32 0 2 0 C7 5.47619048 7 5.47619048 7 8 C8.32 8.66 9.64 9.32 11 10 C11 10.66 11 11.32 11 12 C11.61875 12.268125 12.2375 12.53625 12.875 12.8125 C15 14 15 14 17 17 C13.75332633 16.41715065 12.09576752 15.47914871 9.765625 13.1640625 C8.90517578 12.30941406 8.90517578 12.30941406 8.02734375 11.4375 C7.44082031 10.839375 6.85429688 10.24125 6.25 9.625 C5.64800781 9.03460938 5.04601563 8.44421875 4.42578125 7.8359375 C3.85730469 7.26359375 3.28882813 6.69125 2.703125 6.1015625 C2.18395508 5.57900879 1.66478516 5.05645508 1.12988281 4.51806641 C0 3 0 3 0 0 Z " fill="#111111" transform="translate(43,288)"/>
<path d="M0 0 C7.8822202 0.51599184 15.34458305 2.0921453 23 4 C23 4.33 23 4.66 23 5 C14.65474478 5.51917486 7.08961486 3.95829294 -1 2 C-0.67 1.34 -0.34 0.68 0 0 Z " fill="#101115" transform="translate(205,281)"/>
<path d="M0 0 C0.33 0.99 0.66 1.98 1 3 C-4.61 8.61 -10.22 14.22 -16 20 C-16.66 19.34 -17.32 18.68 -18 18 C-17.28972656 17.37351562 -16.57945312 16.74703125 -15.84765625 16.1015625 C-14.46900391 14.87566406 -14.46900391 14.87566406 -13.0625 13.625 C-12.14597656 12.81289063 -11.22945313 12.00078125 -10.28515625 11.1640625 C-7.96398605 9.21290653 -7.96398605 9.21290653 -7 7 C-6.34 7 -5.68 7 -5 7 C-4.731875 6.401875 -4.46375 5.80375 -4.1875 5.1875 C-3.01506533 3.02775192 -1.80630718 1.64209744 0 0 Z " fill="#111111" transform="translate(309,289)"/>
<path d="M0 0 C0.66 0.66 1.32 1.32 2 2 C-4.93 8.93 -11.86 15.86 -19 23 C-19.66 22.34 -20.32 21.68 -21 21 C-20.55011719 20.62230469 -20.10023438 20.24460937 -19.63671875 19.85546875 C-8.89500321 10.76318877 -8.89500321 10.76318877 0 0 Z " fill="#D9D9D9" transform="translate(311,289)"/>
<path d="M0 0 C1.98 0.99 3.96 1.98 6 3 C5.67 3.99 5.34 4.98 5 6 C4.34 6 3.68 6 3 6 C3.226875 7.051875 3.45375 8.10375 3.6875 9.1875 C4.03113289 13.37982123 3.62248477 14.79474083 1 18 C0.34 18 -0.32 18 -1 18 C-0.855625 17.08476562 -0.71125 16.16953125 -0.5625 15.2265625 C-0.376875 14.03804687 -0.19125 12.84953125 0 11.625 C0.185625 10.44164062 0.37125 9.25828125 0.5625 8.0390625 C1.06236139 4.56681103 1.11575295 3.34725886 0 0 Z " fill="#C7B3B0" transform="translate(144,230)"/>
<path d="M0 0 C2.97 0.495 2.97 0.495 6 1 C6 1.66 6 2.32 6 3 C5.34 3 4.68 3 4 3 C3.95101562 3.69867188 3.90203125 4.39734375 3.8515625 5.1171875 C3.77679688 6.02726563 3.70203125 6.93734375 3.625 7.875 C3.52058594 9.23238281 3.52058594 9.23238281 3.4140625 10.6171875 C3 13 3 13 1 15 C-0.58493084 11.83013832 -0.2940042 8.45967739 0 5 C1 2.5 1 2.5 2 1 C1.34 0.67 0.68 0.34 0 0 Z " fill="#E73C2F" transform="translate(218,131)"/>
<path d="M0 0 C2.90881356 3.53213075 5.46341807 7.19512711 8 11 C8.66 11.66 9.32 12.32 10 13 C11.41885983 15.28881768 12.6915737 17.64483265 14 20 C13.34 20.33 12.68 20.66 12 21 C9.98460086 18.26098681 7.99051709 15.50713516 6 12.75 C5.42765625 11.97269531 4.8553125 11.19539063 4.265625 10.39453125 C3.45351563 9.26337891 3.45351563 9.26337891 2.625 8.109375 C2.12226563 7.41811523 1.61953125 6.72685547 1.1015625 6.01464844 C0 4 0 4 0 0 Z " fill="#151515" transform="translate(27,265)"/>
<path d="M0 0 C2 1.3125 2 1.3125 4 3 C4 3.99 4 4.98 4 6 C4.66 6 5.32 6 6 6 C6 8.31 6 10.62 6 13 C5.01 12.67 4.02 12.34 3 12 C3.66 10.35 4.32 8.7 5 7 C3.68 7.33 2.36 7.66 1 8 C0.67 7.01 0.34 6.02 0 5 C-0.33 5.66 -0.66 6.32 -1 7 C-1.66 7 -2.32 7 -3 7 C-2.25 2.25 -2.25 2.25 0 0 Z " fill="#D03330" transform="translate(229,192)"/>
<path d="M0 0 C9.24 0 18.48 0 28 0 C28 0.99 28 1.98 28 3 C14.14 2.01 14.14 2.01 0 1 C0 0.67 0 0.34 0 0 Z " fill="#C4C4C4" transform="translate(182,0)"/>
<path d="M0 0 C0.33 0.66 0.66 1.32 1 2 C3.02463255 2.65213292 3.02463255 2.65213292 5 3 C5 3.66 5 4.32 5 5 C6.65 5 8.3 5 10 5 C10 5.33 10 5.66 10 6 C8.02 6.33 6.04 6.66 4 7 C3.67 5.68 3.34 4.36 3 3 C1.8553125 3.4640625 1.8553125 3.4640625 0.6875 3.9375 C-1.18789677 4.67893593 -3.08684652 5.36228217 -5 6 C-5 6.66 -5 7.32 -5 8 C-6.96147874 9.38938077 -8.96166576 10.7260411 -11 12 C-11.66 11.67 -12.32 11.34 -13 11 C-8.71 7.37 -4.42 3.74 0 0 Z " fill="#DF5442" transform="translate(131,219)"/>
<path d="M0 0 C0.66 0 1.32 0 2 0 C4.47346304 2.47346304 4.98313144 3.70761168 5.1875 7.25 C5.125625 8.1575 5.06375 9.065 5 10 C3.35 10 1.7 10 0 10 C-1.2380014 6.42355152 -0.74926071 3.66305234 0 0 Z " fill="#F54129" transform="translate(257,146)"/>
<path d="M0 0 C2.82056466 2.82056466 3.30516643 6.11562699 4.25 9.875 C4.44851563 10.59558594 4.64703125 11.31617187 4.8515625 12.05859375 C6.21073093 17.40662606 6.21073093 17.40662606 5.109375 20.5078125 C4.74328125 21.00023437 4.3771875 21.49265625 4 22 C3.89042969 21.31035156 3.78085937 20.62070313 3.66796875 19.91015625 C2.72199622 14.30353859 1.51684683 9.0939161 -0.51171875 3.77734375 C-1 2 -1 2 0 0 Z " fill="#1F1F1F" transform="translate(342,116)"/>
<path d="M0 0 C0 0.33 0 0.66 0 1 C-1.5811292 1.50692692 -3.16501383 2.00526443 -4.75 2.5 C-5.63171875 2.7784375 -6.5134375 3.056875 -7.421875 3.34375 C-10 4 -10 4 -14 4 C-14.33 4.66 -14.66 5.32 -15 6 C-15.99 6.495 -15.99 6.495 -17 7 C-17.33 6.01 -17.66 5.02 -18 4 C-6.66287016 -1.92482916 -6.66287016 -1.92482916 0 0 Z " fill="#0E0F11" transform="translate(188,153)"/>
<path d="M0 0 C1.65 1.65 3.3 3.3 5 5 C4.01 5.495 4.01 5.495 3 6 C3.061875 7.546875 3.061875 7.546875 3.125 9.125 C3.0022123 12.93141864 2.6337465 15.56913234 1 19 C-1.125 19.875 -1.125 19.875 -3 20 C-3 19.34 -3 18.68 -3 18 C-2.34 18 -1.68 18 -1 18 C-1 17.34 -1 16.68 -1 16 C-0.34 16 0.32 16 1 16 C0.67 10.72 0.34 5.44 0 0 Z " fill="#AD4844" transform="translate(142,229)"/>
<path d="M0 0 C0.66 0 1.32 0 2 0 C1.21824485 4.84688192 -0.39844278 9.3766367 -2 14 C-2.66 14 -3.32 14 -4 14 C-4 10.37 -4 6.74 -4 3 C-2.68 2.67 -1.36 2.34 0 2 C0 1.34 0 0.68 0 0 Z " fill="#BF3C3B" transform="translate(232,205)"/>
<path d="M0 0 C13.365 0.495 13.365 0.495 27 1 C27 1.33 27 1.66 27 2 C13.635 2.495 13.635 2.495 0 3 C0 2.01 0 1.02 0 0 Z " fill="#EDEDED" transform="translate(160,351)"/>
<path d="M0 0 C0.66 0.33 1.32 0.66 2 1 C1.505 1.5775 1.01 2.155 0.5 2.75 C-1.36980013 5.10400629 -1.36980013 5.10400629 -1 9 C-0.360625 9.12375 0.27875 9.2475 0.9375 9.375 C1.618125 9.58125 2.29875 9.7875 3 10 C3.33 10.66 3.66 11.32 4 12 C1.125 12.125 1.125 12.125 -2 12 C-4 10 -4 10 -4.125 6.875 C-4.08375 5.92625 -4.0425 4.9775 -4 4 C-3.34 4 -2.68 4 -2 4 C-1.34 2.68 -0.68 1.36 0 0 Z " fill="#F93923" transform="translate(110,245)"/>
<path d="M0 0 C0.99 0.33 1.98 0.66 3 1 C-0.40013076 4.60013845 -3.8441979 7.32181642 -8 10 C-8.66 10.66 -9.32 11.32 -10 12 C-10.33 11.01 -10.66 10.02 -11 9 C-8.24829249 6.0444623 -5.58029701 3.88436685 -2 2 C-1.34 2 -0.68 2 0 2 C0 1.34 0 0.68 0 0 Z " fill="#141416" transform="translate(109,159)"/>
<path d="M0 0 C0.58587891 0.71929687 0.58587891 0.71929687 1.18359375 1.453125 C-6.84049094 0.95624492 -14.83436247 0.43337599 -22.81640625 -0.546875 C-22.81640625 -0.876875 -22.81640625 -1.206875 -22.81640625 -1.546875 C-4.79940285 -4.0872334 -4.79940285 -4.0872334 0 0 Z " fill="#141414" transform="translate(207.81640625,3.546875)"/>
<path d="M0 0 C1.32 0.33 2.64 0.66 4 1 C3.9071875 2.3303125 3.9071875 2.3303125 3.8125 3.6875 C4.02225232 7.39312432 5.11866859 8.89171332 7 12 C6.6875 14.3125 6.6875 14.3125 6 16 C2.58718628 13.35196246 2.16804451 10.42726168 1.3125 6.3125 C1.06113281 5.13300781 0.80976563 3.95351562 0.55078125 2.73828125 C0.36902344 1.83464844 0.18726563 0.93101562 0 0 Z " fill="#E7523F" transform="translate(257,178)"/>
<path d="M0 0 C0.625 1.75 0.625 1.75 1 4 C0.33333333 5.33333333 -0.33333333 6.66666667 -1 8 C-1.47125235 10.66360025 -1.73049325 13.30493254 -2 16 C-2.99 16.33 -3.98 16.66 -5 17 C-3.28571429 3.28571429 -3.28571429 3.28571429 0 0 Z " fill="#1B1B1B" transform="translate(9,127)"/>
<path d="M0 0 C2.125 0.375 2.125 0.375 4 1 C1.87885041 2.50571746 -0.24653615 4.00468679 -2.375 5.5 C-2.97828125 5.92925781 -3.5815625 6.35851562 -4.203125 6.80078125 C-8.7734375 10 -8.7734375 10 -11 10 C-10.67 9.01 -10.34 8.02 -10 7 C-9.34 7 -8.68 7 -8 7 C-8 6.34 -8 5.68 -8 5 C-7.05125 4.54625 -6.1025 4.0925 -5.125 3.625 C-1.99686321 2.19761746 -1.99686321 2.19761746 0 0 Z " fill="#390503" transform="translate(179,184)"/>
<path d="M0 0 C7.40256709 -0.48541424 7.40256709 -0.48541424 10 1.625 C11.2766188 4.65696965 11.41616519 6.74003936 11 10 C9.5 11.875 9.5 11.875 8 13 C8.0825 11.9275 8.165 10.855 8.25 9.75 C8.3458377 6.01721797 8.3458377 6.01721797 6.25 3.6875 C4.21711228 2.16283421 2.33085643 0.99893847 0 0 Z " fill="#737478" transform="translate(138,267)"/>
<path d="M0 0 C0 0.99 0 1.98 0 3 C-5.57468542 6.61601216 -10.60567654 6.30720059 -17 6 C-17 6.66 -17 7.32 -17 8 C-17.66 7.67 -18.32 7.34 -19 7 C-18.67 6.34 -18.34 5.68 -18 5 C-15.48828125 4.47265625 -15.48828125 4.47265625 -12.3125 4.0625 C-7.58533296 3.35821409 -4.06338816 2.48318165 0 0 Z " fill="#D2A69E" transform="translate(141,248)"/>
<path d="M0 0 C5.40489519 1.52012677 8.98492628 5.27385218 13 9 C10 10 10 10 7 9 C5.5625 7.6875 5.5625 7.6875 4 6 C3.278125 5.319375 2.55625 4.63875 1.8125 3.9375 C0 2 0 2 0 0 Z " fill="#DDAA9F" transform="translate(203,143)"/>
<path d="M0 0 C0.99 0.66 1.98 1.32 3 2 C-7.37357631 7.37129841 -7.37357631 7.37129841 -13 9 C-13.33 8.34 -13.66 7.68 -14 7 C-9.38 4.69 -4.76 2.38 0 0 Z " fill="#0E0E0E" transform="translate(105,15)"/>
<path d="M0 0 C1.98 0 3.96 0 6 0 C6 2.64 6 5.28 6 8 C5.67 7.01 5.34 6.02 5 5 C4.01 5.99 3.02 6.98 2 8 C0.23537317 4.91190305 0 3.76687864 0 0 Z " fill="#D13E34" transform="translate(136,225)"/>
<path d="M0 0 C0.78890625 0.10828125 1.5778125 0.2165625 2.390625 0.328125 C8.02840909 1.21022727 8.02840909 1.21022727 10.6875 1.6875 C7.61775928 3.50428532 5.76925355 3.88123578 2.25 3.375 C1.46882812 3.26671875 0.68765625 3.1584375 -0.1171875 3.046875 C-2.53009619 2.65187927 -4.92717557 2.22612164 -7.3125 1.6875 C-4.03910644 -0.49476237 -3.64648617 -0.522726 0 0 Z " fill="#252525" transform="translate(144.3125,346.3125)"/>
<path d="M0 0 C6.02770138 0.47587116 10.76678289 3.19722957 16 6 C15.67 6.66 15.34 7.32 15 8 C7.5 5 7.5 5 0 2 C0 1.34 0 0.68 0 0 Z " fill="#111111" transform="translate(249,17)"/>
<path d="M0 0 C-0.99 0.495 -0.99 0.495 -2 1 C-2 1.66 -2 2.32 -2 3 C-6.31196609 3.94324258 -10.62065881 4.48041715 -15 5 C-15.33 4.34 -15.66 3.68 -16 3 C-14.27318563 2.49193553 -12.54342021 1.99389533 -10.8125 1.5 C-9.84957031 1.2215625 -8.88664063 0.943125 -7.89453125 0.65625 C-5.14654124 0.03322392 -2.80401584 -0.12302812 0 0 Z " fill="#1A1A1A" transform="translate(146,3)"/>
<path d="M0 0 C-1.65 0.66 -3.3 1.32 -5 2 C-5 2.66 -5 3.32 -5 4 C-6.7578125 4.9765625 -8.515625 5.953125 -10.2734375 6.9296875 C-12.1612614 8.00897274 -12.1612614 8.00897274 -14 10 C-14.33 9.34 -14.66 8.68 -15 8 C-11.29230481 3.82884292 -5.73708737 -1.91236246 0 0 Z " fill="#101113" transform="translate(229,263)"/>
<path d="M0 0 C0.33 0.66 0.66 1.32 1 2 C3.32156597 2.40729228 5.6568787 2.74438677 8 3 C8.33 3.99 8.66 4.98 9 6 C8.360625 5.855625 7.72125 5.71125 7.0625 5.5625 C3.06155212 4.82763202 -0.95504896 4.41418889 -5 4 C-3.36587557 2.29159719 -2.13093906 1.06546953 0 0 Z " fill="#C8A096" transform="translate(187,182)"/>
<path d="M0 0 C2.92879371 0.62759865 5.36095629 1.58622659 8 3 C8 3.66 8 4.32 8 5 C9.32 5.66 10.64 6.32 12 7 C11.34 7.66 10.68 8.32 10 9 C8.3278148 7.88321917 6.66237197 6.75633648 5 5.625 C3.6078125 4.68527344 3.6078125 4.68527344 2.1875 3.7265625 C1.465625 3.15679687 0.74375 2.58703125 0 2 C0 1.34 0 0.68 0 0 Z " fill="#131315" transform="translate(178,105)"/>
<path d="M0 0 C0.66 0.33 1.32 0.66 2 1 C1.67 2.65 1.34 4.3 1 6 C-1.64 6 -4.28 6 -7 6 C-4.74259377 3.66475218 -2.7194239 1.81294927 0 0 Z " fill="#B0B0B2" transform="translate(276,261)"/>
<path d="M0 0 C0.33 0 0.66 0 1 0 C0.67 5.28 0.34 10.56 0 16 C-2.24234009 12.63648987 -2.27098215 11.37689944 -2.25 7.4375 C-2.25515625 6.46683594 -2.2603125 5.49617187 -2.265625 4.49609375 C-2 2 -2 2 0 0 Z " fill="#292929" transform="translate(352,182)"/>
<path d="M0 0 C1.60461448 4.01153621 0.45438973 7.07314774 -1 11 C-1.99 11.66 -2.98 12.32 -4 13 C-4.66 12.34 -5.32 11.68 -6 11 C-6 10.01 -6 9.02 -6 8 C-4.68 8 -3.36 8 -2 8 C-1.855625 7.236875 -1.71125 6.47375 -1.5625 5.6875 C-1 3 -1 3 0 0 Z " fill="#A48886" transform="translate(222,144)"/>
<path d="M0 0 C0.66 0.33 1.32 0.66 2 1 C0.35 3.64 -1.3 6.28 -3 9 C-4.32 8.67 -5.64 8.34 -7 8 C-5.50902342 4.2047869 -3.24299151 2.38957269 0 0 Z " fill="#B1B2B4" transform="translate(128,125)"/>
<path d="M0 0 C3.96 0.33 7.92 0.66 12 1 C12 1.33 12 1.66 12 2 C11.195625 2.12375 10.39125 2.2475 9.5625 2.375 C8.2940625 2.684375 8.2940625 2.684375 7 3 C6.67 3.66 6.34 4.32 6 5 C2.7 4.67 -0.6 4.34 -4 4 C-4 3.67 -4 3.34 -4 3 C-0.535 2.505 -0.535 2.505 3 2 C2.01 1.34 1.02 0.68 0 0 Z " fill="#8E8F93" transform="translate(230,288)"/>
<path d="M0 0 C0.99 0.33 1.98 0.66 3 1 C2.67 2.32 2.34 3.64 2 5 C2.66 5.33 3.32 5.66 4 6 C3.67 6.99 3.34 7.98 3 9 C0 8 0 8 -1.3125 5.625 C-1.539375 4.75875 -1.76625 3.8925 -2 3 C-1.34 2.01 -0.68 1.02 0 0 Z " fill="#DD4033" transform="translate(136,241)"/>
<path d="M0 0 C0 0.66 0 1.32 0 2 C-2.10277123 2.22197585 -4.20732302 2.42713637 -6.3125 2.625 C-7.48425781 2.74101562 -8.65601563 2.85703125 -9.86328125 2.9765625 C-13 3 -13 3 -16 1 C-10.59255982 0.22750855 -5.46137814 -0.09752461 0 0 Z " fill="#CD5040" transform="translate(218,235)"/>
<path d="M0 0 C0.66 0.33 1.32 0.66 2 1 C-1.63 4.96 -5.26 8.92 -9 13 C-9.66 12.34 -10.32 11.68 -11 11 C-7.37 7.37 -3.74 3.74 0 0 Z " fill="#0B0B0D" transform="translate(166,161)"/>
<path d="M0 0 C0.66 0.66 1.32 1.32 2 2 C-0.31 5.63 -2.62 9.26 -5 13 C-5.66 12.34 -6.32 11.68 -7 11 C-4.69 7.37 -2.38 3.74 0 0 Z " fill="#1C1C1C" transform="translate(328,262)"/>
<path d="M0 0 C0.6875 1.8125 0.6875 1.8125 1 4 C-0.4375 5.75 -0.4375 5.75 -2 7 C0.97 7.495 0.97 7.495 4 8 C4 8.33 4 8.66 4 9 C0.37 9.33 -3.26 9.66 -7 10 C-5.47005208 7.98177083 -3.94010417 5.96354167 -2.41015625 3.9453125 C-0.96035376 2.05642921 -0.96035376 2.05642921 0 0 Z " fill="#121214" transform="translate(256,232)"/>
<path d="M0 0 C2.16099373 2.16099373 2.71563716 3.5210418 3.6875 6.375 C3.95949219 7.14585937 4.23148438 7.91671875 4.51171875 8.7109375 C5.04278009 11.20055308 4.81115526 12.61553018 4 15 C2.13224341 12.19836511 1.27321694 10.11958197 0.3125 6.9375 C0.04050781 6.05964844 -0.23148438 5.18179688 -0.51171875 4.27734375 C-1 2 -1 2 0 0 Z " fill="#111111" transform="translate(10,226)"/>
<path d="M0 0 C0.66 0.33 1.32 0.66 2 1 C1.34 4.96 0.68 8.92 0 13 C-0.99 12.67 -1.98 12.34 -3 12 C-2.69106068 10.3743193 -2.3777305 8.74947252 -2.0625 7.125 C-1.88847656 6.22007812 -1.71445312 5.31515625 -1.53515625 4.3828125 C-1 2 -1 2 0 0 Z " fill="#141212" transform="translate(270,195)"/>
<path d="M0 0 C0.66 0 1.32 0 2 0 C3.59618954 6.86361501 2.24720085 13.14554904 1 20 C0.67 20 0.34 20 0 20 C-0.02701408 17.89590361 -0.04640223 15.79170822 -0.0625 13.6875 C-0.07410156 12.51574219 -0.08570313 11.34398437 -0.09765625 10.13671875 C0 7 0 7 1 4 C0.61067144 1.85744207 0.61067144 1.85744207 0 0 Z " fill="#C8B8B4" transform="translate(254,156)"/>
<path d="M0 0 C0.33 0 0.66 0 1 0 C1 1.65 1 3.3 1 5 C0.01 5 -0.98 5 -2 5 C-2.103125 5.94875 -2.20625 6.8975 -2.3125 7.875 C-3 11 -3 11 -6 13 C-5.62875 11.906875 -5.2575 10.81375 -4.875 9.6875 C-4.441875 7.8621875 -4.441875 7.8621875 -4 6 C-4.66 5.01 -5.32 4.02 -6 3 C-4.35 3 -2.7 3 -1 3 C-0.67 2.01 -0.34 1.02 0 0 Z " fill="#ED513D" transform="translate(263,153)"/>
<path d="M0 0 C0.33 0 0.66 0 1 0 C2.01202288 7.17757765 1.88826175 13.81191259 1 21 C0.67 21 0.34 21 0 21 C-0.19645093 17.87549468 -0.38063489 14.75038555 -0.5625 11.625 C-0.61857422 10.73554688 -0.67464844 9.84609375 -0.73242188 8.9296875 C-0.78076172 8.07890625 -0.82910156 7.228125 -0.87890625 6.3515625 C-0.9260376 5.56604004 -0.97316895 4.78051758 -1.02172852 3.97119141 C-1 2 -1 2 0 0 Z " fill="#161616" transform="translate(350,147)"/>
<path d="M0 0 C0.66 0.33 1.32 0.66 2 1 C0.85248597 5.7539867 -0.38262517 10.37892907 -2 15 C-2.66 14.01 -3.32 13.02 -4 12 C-3.3203125 9.08203125 -3.3203125 9.08203125 -2.125 5.8125 C-1.73570313 4.72582031 -1.34640625 3.63914062 -0.9453125 2.51953125 C-0.63335937 1.68808594 -0.32140625 0.85664062 0 0 Z " fill="#161616" transform="translate(13,111)"/>
<path d="M0 0 C4.61513112 1.31860889 8.09897612 3.21355437 12 6 C11.34 6.66 10.68 7.32 10 8 C6.37 6.02 2.74 4.04 -1 2 C-0.67 1.34 -0.34 0.68 0 0 Z " fill="#151517" transform="translate(130,68)"/>
<path d="M0 0 C6.09781001 -0.22084624 11.21642935 -0.01167675 17 2 C16.67 2.66 16.34 3.32 16 4 C10.63486869 3.152874 5.3212615 2.08318169 0 1 C0 0.67 0 0.34 0 0 Z " fill="#111111" transform="translate(210,5)"/>
<path d="M0 0 C5.445 1.485 5.445 1.485 11 3 C11 3.66 11 4.32 11 5 C11.99 5.33 12.98 5.66 14 6 C8.58609132 5.53328373 4.79482068 4.75702189 0 2 C0 1.34 0 0.68 0 0 Z " fill="#111111" transform="translate(95,295)"/>
<path d="M0 0 C2.4375 1 2.4375 1 4 2 C2.42039731 3.57960269 0.80463184 3.16986544 -1.375 3.1875 C-2.16648438 3.20167969 -2.95796875 3.21585937 -3.7734375 3.23046875 C-6 3 -6 3 -9 1 C-5.97562661 -0.5121867 -3.33758466 -0.17263369 0 0 Z " fill="#C0C1C3" transform="translate(230,288)"/>
<path d="M0 0 C8.19256018 -0.63019694 8.19256018 -0.63019694 11.5625 2 C12.036875 2.66 12.51125 3.32 13 4 C10.66666667 4 8.33333333 4 6 4 C6 3.34 6 2.68 6 2 C2.37114676 1.84850702 2.37114676 1.84850702 -1 3 C-0.67 2.01 -0.34 1.02 0 0 Z " fill="#A9AAAC" transform="translate(251,242)"/>
<path d="M0 0 C0.99 0.33 1.98 0.66 3 1 C3.8125 2.875 3.8125 2.875 4 5 C3.01 6.485 3.01 6.485 2 8 C1.34 8 0.68 8 0 8 C-0.66 9.65 -1.32 11.3 -2 13 C-2.33 12.34 -2.66 11.68 -3 11 C-2.00522247 8.66443537 -1.00484883 6.33124929 0 4 C0 2.68 0 1.36 0 0 Z " fill="#9F8B85" transform="translate(226,130)"/>
<path d="M0 0 C3.9252025 3.70090521 6.94580156 7.54959656 10 12 C7.35107221 11.61993645 6.19467845 11.19914355 4.296875 9.2578125 C3.78640625 8.55398437 3.2759375 7.85015625 2.75 7.125 C2.22921875 6.42632812 1.7084375 5.72765625 1.171875 5.0078125 C0 3 0 3 0 0 Z " fill="#1D1D1D" transform="translate(312,64)"/>
<path d="M0 0 C0.33 0.99 0.66 1.98 1 3 C0.34 3 -0.32 3 -1 3 C-0.67 3.99 -0.34 4.98 0 6 C-1.75 6.625 -1.75 6.625 -4 7 C-5.32 6.34 -6.64 5.68 -8 5 C-4.04 2.525 -4.04 2.525 0 0 Z " fill="#141517" transform="translate(204,275)"/>
<path d="M0 0 C3.62613199 0.56959153 5.25517741 1.92374534 7.75 4.5625 C8.36359375 5.20316406 8.9771875 5.84382812 9.609375 6.50390625 C10.06828125 6.99761719 10.5271875 7.49132812 11 8 C10.34 8.66 9.68 9.32 9 10 C7.49702124 8.52386015 5.99768715 7.04400843 4.5 5.5625 C3.6646875 4.73878906 2.829375 3.91507813 1.96875 3.06640625 C0 1 0 1 0 0 Z " fill="#1B1B1D" transform="translate(262,243)"/>
<path d="M0 0 C3.96 0.33 7.92 0.66 12 1 C8.13209997 2.93395001 6.8499541 3.23289353 2.75 3.125 C1.85796875 3.10695313 0.9659375 3.08890625 0.046875 3.0703125 C-0.96632812 3.03550781 -0.96632812 3.03550781 -2 3 C-1.34 2.01 -0.68 1.02 0 0 Z " fill="#292929" transform="translate(184,349)"/>
<path d="M0 0 C0.99 0.33 1.98 0.66 3 1 C1.90033225 2.29549899 0.79508199 3.58626071 -0.3125 4.875 C-0.92738281 5.59429687 -1.54226562 6.31359375 -2.17578125 7.0546875 C-4 9 -4 9 -7 11 C-5.5140084 6.40693504 -3.14985318 3.56430755 0 0 Z " fill="#8C8C8E" transform="translate(243,110)"/>
<path d="M0 0 C3.21880117 3.7935871 5.6163187 7.65829477 8 12 C7.01 12.495 7.01 12.495 6 13 C4.80286983 11.21475351 3.61752721 9.4215972 2.4375 7.625 C1.44556641 6.12839844 1.44556641 6.12839844 0.43359375 4.6015625 C-0.03949219 3.74304688 -0.51257813 2.88453125 -1 2 C-0.67 1.34 -0.34 0.68 0 0 Z " fill="#1C1C1C" transform="translate(322,77)"/>
<path d="M0 0 C-0.33 0.99 -0.66 1.98 -1 3 C-2.99609375 3.80078125 -2.99609375 3.80078125 -5.4375 4.3125 C-6.24058594 4.49425781 -7.04367188 4.67601562 -7.87109375 4.86328125 C-8.92490234 4.93095703 -8.92490234 4.93095703 -10 5 C-10.66 4.34 -11.32 3.68 -12 3 C-10.37604003 2.49663233 -8.75079459 1.99741024 -7.125 1.5 C-6.22007812 1.2215625 -5.31515625 0.943125 -4.3828125 0.65625 C-2 0 -2 0 0 0 Z " fill="#18191D" transform="translate(184,287)"/>
<path d="M0 0 C3.3 0.33 6.6 0.66 10 1 C9.34 1.66 8.68 2.32 8 3 C4.4375 2.75 4.4375 2.75 1 2 C0.67 1.34 0.34 0.68 0 0 Z M-2 1 C-1.34 1 -0.68 1 0 1 C-0.33 1.99 -0.66 2.98 -1 4 C-1.99 3.67 -2.98 3.34 -4 3 C-3.34 2.34 -2.68 1.68 -2 1 Z " fill="#101115" transform="translate(189,284)"/>
<path d="M0 0 C1.0625 1.8125 1.0625 1.8125 2 4 C1.67 4.99 1.34 5.98 1 7 C-2.0625 8.1875 -2.0625 8.1875 -5 9 C-3.7508258 5.54074837 -2.32472205 2.85306797 0 0 Z " fill="#B1B1B1" transform="translate(93,262)"/>
<path d="M0 0 C0 0.66 0 1.32 0 2 C-1.32 2.33 -2.64 2.66 -4 3 C-4.33 4.32 -4.66 5.64 -5 7 C-6.875 7.625 -6.875 7.625 -9 8 C-9.66 7.34 -10.32 6.68 -11 6 C-9.54550599 4.9944239 -8.08627557 3.99569565 -6.625 3 C-5.40683594 2.1646875 -5.40683594 2.1646875 -4.1640625 1.3125 C-2 0 -2 0 0 0 Z " fill="#D7392F" transform="translate(159,201)"/>
<path d="M0 0 C3.1875 -0.3125 3.1875 -0.3125 6 0 C4.3125 2.5 4.3125 2.5 2 5 C-0.75 5.3125 -0.75 5.3125 -3 5 C-1.875 2.5 -1.875 2.5 0 0 Z " fill="#FA482E" transform="translate(182,187)"/>
<path d="M0 0 C5.445 1.485 5.445 1.485 11 3 C7 5 7 5 4.640625 4.5390625 C3.85171875 4.23742187 3.0628125 3.93578125 2.25 3.625 C1.45078125 3.32851563 0.6515625 3.03203125 -0.171875 2.7265625 C-0.77515625 2.48679687 -1.3784375 2.24703125 -2 2 C-1.34 1.34 -0.68 0.68 0 0 Z " fill="#232323" transform="translate(116,339)"/>
<path d="M0 0 C0.66 0 1.32 0 2 0 C0.68938409 4.23429756 -0.94356259 8.07407404 -3 12 C-3.66 12 -4.32 12 -5 12 C-3.68938409 7.76570244 -2.05643741 3.92592596 0 0 Z " fill="#0F0F0F" transform="translate(336,246)"/>
<path d="M0 0 C0.33 0.99 0.66 1.98 1 3 C0.67 3.61875 0.34 4.2375 0 4.875 C-1.30508088 7.64829686 -0.83737017 9.10726669 0 12 C0.33 12.66 0.66 13.32 1 14 C-0.32 14 -1.64 14 -3 14 C-3.32374517 8.49633208 -3.53286034 4.56327794 0 0 Z " fill="#EBA8A2" transform="translate(106,244)"/>
<path d="M0 0 C-5.94 3.465 -5.94 3.465 -12 7 C-11.67 5.68 -11.34 4.36 -11 3 C-9.35 2.67 -7.7 2.34 -6 2 C-6 1.34 -6 0.68 -6 0 C-4 -1 -4 -1 0 0 Z " fill="#3C0503" transform="translate(167,196)"/>
<path d="M0 0 C3 1 3 1 4 3 C6.01669827 4.13350534 6.01669827 4.13350534 8 5 C6.02 5.99 6.02 5.99 4 7 C3.67 6.01 3.34 5.02 3 4 C1.35 3.67 -0.3 3.34 -2 3 C-1.34 2.01 -0.68 1.02 0 0 Z " fill="#D33D32" transform="translate(221,186)"/>
<path d="M0 0 C0.66 0.66 1.32 1.32 2 2 C-1.51187196 4.40814077 -3.72656908 5.36629408 -8 5 C-8.33 4.34 -8.66 3.68 -9 3 C-6.03 2.01 -3.06 1.02 0 0 Z " fill="#101010" transform="translate(150,176)"/>
<path d="M0 0 C0.66 0 1.32 0 2 0 C2.0825 0.78375 2.165 1.5675 2.25 2.375 C2.4975 3.24125 2.745 4.1075 3 5 C4.31647119 5.69937532 5.65022151 6.36729133 7 7 C7.75 9.125 7.75 9.125 8 11 C2.37130802 8.67510549 2.37130802 8.67510549 0.625 5.5 C0 3 0 3 0 0 Z " fill="#E44A39" transform="translate(201,135)"/>
<path d="M0 0 C3.66871014 2.44580676 5.06212134 5.12424268 7 9 C6.34 9 5.68 9 5 9 C4.67 9.66 4.34 10.32 4 11 C3.67 9.35 3.34 7.7 3 6 C2.34 6 1.68 6 1 6 C0.34 4.35 -0.32 2.7 -1 1 C-0.67 0.67 -0.34 0.34 0 0 Z " fill="#0E0E10" transform="translate(113,98)"/>
<path d="M0 0 C2.52631142 3.12781414 4.42373366 6.29577411 6 10 C5.67 10.99 5.34 11.98 5 13 C3.02 9.04 1.04 5.08 -1 1 C-0.67 0.67 -0.34 0.34 0 0 Z " fill="#121212" transform="translate(330,90)"/>
<path d="M0 0 C0.99 0.33 1.98 0.66 3 1 C1.05967472 2.94032528 -0.92398243 4.49198696 -3.125 6.125 C-3.84945312 6.66382813 -4.57390625 7.20265625 -5.3203125 7.7578125 C-5.87460938 8.16773438 -6.42890625 8.57765625 -7 9 C-7 6 -7 6 -5.57421875 4.359375 C-4.95160156 3.82828125 -4.32898438 3.2971875 -3.6875 2.75 C-3.07261719 2.20859375 -2.45773438 1.6671875 -1.82421875 1.109375 C-1.22222656 0.74328125 -0.62023437 0.3771875 0 0 Z " fill="#18191A" transform="translate(243,248)"/>
<path d="M0 0 C-0.639375 0.309375 -1.27875 0.61875 -1.9375 0.9375 C-3.93610821 1.8345163 -3.93610821 1.8345163 -5 3 C-7.67058851 3.14115161 -10.32432238 3.04247107 -13 3 C-12 1 -12 1 -10.4375 0.375 C-6.93601819 -0.16368951 -3.54193167 -0.05903219 0 0 Z " fill="#D4B0A9" transform="translate(225,185)"/>
<path d="M0 0 C2.56616632 3.84924948 2.55097676 6.4349304 3 11 C2.01 11 1.02 11 0 11 C0 7.37 0 3.74 0 0 Z " fill="#F83B25" transform="translate(257,167)"/>
<path d="M0 0 C0 0.99 0 1.98 0 3 C-0.66 3.66 -1.32 4.32 -2 5 C-3.98 4.34 -5.96 3.68 -8 3 C-5.4345406 0.4345406 -3.52313332 0.45953913 0 0 Z " fill="#1B1B1D" transform="translate(277,266)"/>
<path d="M0 0 C0.66 0 1.32 0 2 0 C2.36923077 7.38461538 2.36923077 7.38461538 0.5 10.5 C0.005 10.995 -0.49 11.49 -1 12 C-1.14285714 3.42857143 -1.14285714 3.42857143 0 0 Z " fill="#0C0C0C" transform="translate(4,144)"/>
<path d="M0 0 C-0.33 0.66 -0.66 1.32 -1 2 C-6.59491979 3.17312834 -6.59491979 3.17312834 -9 3 C-10.7578125 1.51171875 -10.7578125 1.51171875 -12 0 C-10.37585622 -0.19477739 -8.75063577 -0.38059458 -7.125 -0.5625 C-6.22007812 -0.66691406 -5.31515625 -0.77132812 -4.3828125 -0.87890625 C-2 -1 -2 -1 0 0 Z " fill="#222222" transform="translate(158,2)"/>
<path d="M0 0 C0.99 0.33 1.98 0.66 3 1 C0.38485683 3.12038635 -2.19637616 5.13091744 -5 7 C-5.66 6.34 -6.32 5.68 -7 5 C-5.90554162 4.13342884 -4.79902219 3.28207276 -3.6875 2.4375 C-3.07261719 1.96183594 -2.45773437 1.48617188 -1.82421875 0.99609375 C-1.22222656 0.66738281 -0.62023437 0.33867187 0 0 Z " fill="#1A1A1A" transform="translate(279,316)"/>
<path d="M0 0 C0.66 0.66 1.32 1.32 2 2 C-2.39453125 6.00390625 -2.39453125 6.00390625 -4 7 C-4.99 6.67 -5.98 6.34 -7 6 C-2.25 1.125 -2.25 1.125 0 0 Z " fill="#171110" transform="translate(108,235)"/>
<path d="M0 0 C0.66 0.33 1.32 0.66 2 1 C0.52307692 6.66153846 0.52307692 6.66153846 -2.125 8.375 C-2.74375 8.58125 -3.3625 8.7875 -4 9 C-3.35455571 5.51460083 -1.89865603 2.97180943 0 0 Z " fill="#C7B1AC" transform="translate(226,226)"/>
<path d="M0 0 C0.99 0.33 1.98 0.66 3 1 C3 1.66 3 2.32 3 3 C3.66 3 4.32 3 5 3 C5.33 5.31 5.66 7.62 6 10 C5.01 9.67 4.02 9.34 3 9 C2.05078125 6.93359375 2.05078125 6.93359375 1.3125 4.4375 C1.06113281 3.61121094 0.80976563 2.78492188 0.55078125 1.93359375 C0.36902344 1.29550781 0.18726563 0.65742188 0 0 Z " fill="#C56E61" transform="translate(194,188)"/>
<path d="M0 0 C2.18975773 3.28463659 2.99806563 6.20696275 4 10 C3.34 10 2.68 10 2 10 C2 9.34 2 8.68 2 8 C1.01 7.67 0.02 7.34 -1 7 C-0.67 4.69 -0.34 2.38 0 0 Z " fill="#E7A39A" transform="translate(199,132)"/>
<path d="M0 0 C4.455 0.99 4.455 0.99 9 2 C8.67 2.99 8.34 3.98 8 5 C5.36 4.01 2.72 3.02 0 2 C0 1.34 0 0.68 0 0 Z " fill="#C3B1B5" transform="translate(220,126)"/>
<path d="M0 0 C2.02910711 0.25327449 4.04962145 0.57730068 6.0625 0.9375 C7.16722656 1.13214844 8.27195313 1.32679688 9.41015625 1.52734375 C10.69212891 1.76130859 10.69212891 1.76130859 12 2 C12 2.33 12 2.66 12 3 C10.39620659 3.05416188 8.79188594 3.09286638 7.1875 3.125 C6.29417969 3.14820313 5.40085938 3.17140625 4.48046875 3.1953125 C2 3 2 3 -1 1 C-0.67 0.67 -0.34 0.34 0 0 Z " fill="#090A0E" transform="translate(216,283)"/>
<path d="M0 0 C3.15330554 0.60694155 5.18888867 1.6416665 7.75 3.5625 C8.67039063 4.24505859 8.67039063 4.24505859 9.609375 4.94140625 C10.29773438 5.46541016 10.29773438 5.46541016 11 6 C10.34 6.66 9.68 7.32 9 8 C7.49712782 6.85793642 5.99776716 5.71125043 4.5 4.5625 C3.6646875 3.92441406 2.829375 3.28632813 1.96875 2.62890625 C1.3190625 2.09136719 0.669375 1.55382812 0 1 C0 0.67 0 0.34 0 0 Z " fill="#0F0F11" transform="translate(247,253)"/>
<path d="M0 0 C0.33 0.66 0.66 1.32 1 2 C3.02463255 2.65213292 3.02463255 2.65213292 5 3 C5 3.66 5 4.32 5 5 C6.65 5 8.3 5 10 5 C10 5.33 10 5.66 10 6 C8.02 6.33 6.04 6.66 4 7 C3.67 5.68 3.34 4.36 3 3 C1.35 3 -0.3 3 -2 3 C-1.34 2.01 -0.68 1.02 0 0 Z " fill="#C55F51" transform="translate(131,219)"/>
<path d="M0 0 C1.32 0.33 2.64 0.66 4 1 C1.36 2.98 -1.28 4.96 -4 7 C-4 5.68 -4 4.36 -4 3 C-2.68 2.67 -1.36 2.34 0 2 C0 1.34 0 0.68 0 0 Z " fill="#3F0706" transform="translate(126,220)"/>
<path d="M0 0 C2.23551759 3.35327639 2.17283528 3.90743657 1.625 7.6875 C1.51414062 8.49574219 1.40328125 9.30398437 1.2890625 10.13671875 C1.19367188 10.75160156 1.09828125 11.36648437 1 12 C0.67 12 0.34 12 0 12 C-0.19477739 10.37585622 -0.38059458 8.75063577 -0.5625 7.125 C-0.66691406 6.22007812 -0.77132813 5.31515625 -0.87890625 4.3828125 C-1 2 -1 2 0 0 Z " fill="#303030" transform="translate(348,136)"/>
<path d="M0 0 C0.66 0 1.32 0 2 0 C1.34 1.65 0.68 3.3 0 5 C-0.66 5 -1.32 5 -2 5 C-1.34 3.35 -0.68 1.7 0 0 Z M-3 5 C-2.34 5.66 -1.68 6.32 -1 7 C-1.99 8.32 -2.98 9.64 -4 11 C-3.67 9.02 -3.34 7.04 -3 5 Z " fill="#151515" transform="translate(25,87)"/>
<path d="M0 0 C0.99 0.33 1.98 0.66 3 1 C-1.296875 5.00390625 -1.296875 5.00390625 -3 6 C-5.203125 5.65234375 -5.203125 5.65234375 -7 5 C-5.90554162 4.13342884 -4.79902219 3.28207276 -3.6875 2.4375 C-3.07261719 1.96183594 -2.45773438 1.48617188 -1.82421875 0.99609375 C-1.22222656 0.66738281 -0.62023437 0.33867187 0 0 Z " fill="#1D1D1D" transform="translate(78,30)"/>
<path d="M0 0 C2.5 0.3125 2.5 0.3125 5 1 C5.33 1.66 5.66 2.32 6 3 C4.02 3.66 2.04 4.32 0 5 C-0.5625 3.0625 -0.5625 3.0625 -1 1 C-0.67 0.67 -0.34 0.34 0 0 Z " fill="#050608" transform="translate(243,250)"/>
<path d="M0 0 C0.66 1.32 1.32 2.64 2 4 C0.35 5.65 -1.3 7.3 -3 9 C-3 5.30581799 -1.71820705 3.22163822 0 0 Z " fill="#151618" transform="translate(262,222)"/>
<path d="M0 0 C0.75 1.625 0.75 1.625 1 4 C-0.8125 7.25 -0.8125 7.25 -3 10 C-3.66 10 -4.32 10 -5 10 C-3.84414715 6.08788267 -2.64465038 3.1254959 0 0 Z " fill="#C6ADAC" transform="translate(236,204)"/>
<path d="M0 0 C-3.75 3 -3.75 3 -6 3 C-6 3.66 -6 4.32 -6 5 C-6.99 4.67 -7.98 4.34 -9 4 C-8.34 3.67 -7.68 3.34 -7 3 C-7 2.34 -7 1.68 -7 1 C-3.375 -1.125 -3.375 -1.125 0 0 Z " fill="#3B0603" transform="translate(154,204)"/>
<path d="M0 0 C0.61875 0.78375 1.2375 1.5675 1.875 2.375 C3.89858661 4.96837647 3.89858661 4.96837647 6 7 C6.625 9.625 6.625 9.625 7 12 C6.34 12 5.68 12 5 12 C0.57142857 4.71428571 0.57142857 4.71428571 0 0 Z " fill="#E4A194" transform="translate(259,188)"/>
<path d="M0 0 C3.37503669 1.1858237 5.64722731 2.27573689 8 5 C7.34 5.66 6.68 6.32 6 7 C3.95880212 5.38405168 1.95927063 3.7143618 0 2 C0 1.34 0 0.68 0 0 Z " fill="#131315" transform="translate(170,99)"/>
<path d="M0 0 C3.465 1.98 3.465 1.98 7 4 C6.67 4.66 6.34 5.32 6 6 C3.5625 5.25 3.5625 5.25 1 4 C0.1875 1.875 0.1875 1.875 0 0 Z " fill="#B0B1B3" transform="translate(146,80)"/>
<path d="M0 0 C2.72869407 0.03287583 5.2966618 0.56397771 8 1 C6.515 2.485 6.515 2.485 5 4 C2.69 3.34 0.38 2.68 -2 2 C-1.34 1.34 -0.68 0.68 0 0 Z " fill="#0C0D11" transform="translate(218,290)"/>
<path d="M0 0 C0.66 0.33 1.32 0.66 2 1 C1.67 2.65 1.34 4.3 1 6 C-2.16115776 4.63016497 -2.9927092 4.0109362 -5 1 C-4.01 1 -3.02 1 -2 1 C-1.67 1.33 -1.34 1.66 -1 2 C-0.67 1.34 -0.34 0.68 0 0 Z " fill="#ADAEB0" transform="translate(252,249)"/>
<path d="M0 0 C0.99 0.33 1.98 0.66 3 1 C3 2.98 3 4.96 3 7 C2.01 6.67 1.02 6.34 0 6 C-0.75 4.0625 -0.75 4.0625 -1 2 C-0.67 1.34 -0.34 0.68 0 0 Z " fill="#FA4D2D" transform="translate(193,192)"/>
<path d="M0 0 C0.33 0 0.66 0 1 0 C1 4.95 1 9.9 1 15 C0.01 15 -0.98 15 -2 15 C-1.67 14.34 -1.34 13.68 -1 13 C-0.77049681 10.795636 -0.58924067 8.58607827 -0.4375 6.375 C-0.35371094 5.18648437 -0.26992187 3.99796875 -0.18359375 2.7734375 C-0.12300781 1.85820312 -0.06242187 0.94296875 0 0 Z " fill="#1B1B1D" transform="translate(114,143)"/>
<path d="M0 0 C6.75 1.625 6.75 1.625 9 5 C6.69 5 4.38 5 2 5 C1.34 3.35 0.68 1.7 0 0 Z " fill="#B0B0B2" transform="translate(154,89)"/>
<path d="M0 0 C3.465 1.485 3.465 1.485 7 3 C6.67 3.99 6.34 4.98 6 6 C2.535 4.02 2.535 4.02 -1 2 C-0.67 1.34 -0.34 0.68 0 0 Z " fill="#202020" transform="translate(82,322)"/>
<path d="M0 0 C1.32 0 2.64 0 4 0 C4 0.66 4 1.32 4 2 C5.32 2.33 6.64 2.66 8 3 C8 3.66 8 4.32 8 5 C4.20411134 4.45773019 2.52788007 2.79872437 0 0 Z " fill="#131313" transform="translate(73,317)"/>
<path d="M0 0 C0.66 0.33 1.32 0.66 2 1 C1.319375 1.5878125 1.319375 1.5878125 0.625 2.1875 C-1.27642919 4.30832487 -2.06204028 6.33042235 -3 9 C-3.66 7.68 -4.32 6.36 -5 5 C-3.35 3.35 -1.7 1.7 0 0 Z " fill="#E09E8B" transform="translate(111,235)"/>
<path d="M0 0 C2.26609984 4.53219967 1.92735976 6.17772925 1 11 C0.34 10.67 -0.32 10.34 -1 10 C-0.67 6.7 -0.34 3.4 0 0 Z " fill="#161616" transform="translate(348,204)"/>
<path d="M0 0 C1.0625 1.875 1.0625 1.875 2 4 C1.67 4.66 1.34 5.32 1 6 C-0.98 5.34 -2.96 4.68 -5 4 C-4.0409375 3.8453125 -4.0409375 3.8453125 -3.0625 3.6875 C-2.381875 3.460625 -1.70125 3.23375 -1 3 C-0.67 2.01 -0.34 1.02 0 0 Z " fill="#B2B2B3" transform="translate(210,157)"/>
<path d="M0 0 C2.97 0.495 2.97 0.495 6 1 C5.6875 2.9375 5.6875 2.9375 5 5 C4.01 5.33 3.02 5.66 2 6 C1.34 4.02 0.68 2.04 0 0 Z " fill="#BAB9B4" transform="translate(211,152)"/>
<path d="M0 0 C1.73543126 2.60314689 2.61121812 3.98694043 3 7 C2.34 7.66 1.68 8.32 1 9 C1 8.34 1 7.68 1 7 C0.34 6.67 -0.32 6.34 -1 6 C-0.67 4.02 -0.34 2.04 0 0 Z " fill="#1E1E1E" transform="translate(339,108)"/>
<path d="M0 0 C2.86724686 0.57344937 3.8614515 0.8614515 6 3 C4.125 4.0625 4.125 4.0625 2 5 C1.34 4.67 0.68 4.34 0 4 C0 2.68 0 1.36 0 0 Z " fill="#B5B5B7" transform="translate(175,106)"/>
<path d="M0 0 C0.66 0.66 1.32 1.32 2 2 C0.35 3.65 -1.3 5.3 -3 7 C-3.66 6.34 -4.32 5.68 -5 5 C-3.35 3.35 -1.7 1.7 0 0 Z " fill="#111113" transform="translate(206,167)"/>
<path d="M0 0 C2.125 0.375 2.125 0.375 4 1 C2.35 2.65 0.7 4.3 -1 6 C-1.625 4.125 -1.625 4.125 -2 2 C-1.34 1.34 -0.68 0.68 0 0 Z " fill="#080808" transform="translate(70,36)"/>
<path d="M0 0 C0.598125 0.350625 1.19625 0.70125 1.8125 1.0625 C-2.8125 3.1875 -2.8125 3.1875 -6.1875 2.0625 C-4.66896708 -0.97456585 -3.05066334 -1.30742714 0 0 Z " fill="#191919" transform="translate(122.1875,9.9375)"/>
</svg>
